<svg version="1.1" id="Layer_1" xmlns="http://www.w3.org/2000/svg" xmlns:xlink="http://www.w3.org/1999/xlink" x="0px" y="0px"
	 width="100%" viewBox="0 0 500 500" enable-background="new 0 0 500 500" xml:space="preserve">
<path fill="#FFFFFF" opacity="1.000000" stroke="none" 
	d="
M501.000000,244.000000 
	C501.000000,329.999969 501.000000,415.499969 501.000000,500.999939 
	C334.333405,500.999969 167.666794,500.999969 1.000135,501.000000 
	C1.000090,334.333435 1.000090,167.666870 1.000045,1.000225 
	C167.666519,1.000150 334.333038,1.000150 500.999786,1.000075 
	C501.000000,81.833336 501.000000,162.666672 501.000000,244.000000 
M103.850716,105.742111 
	C109.085678,106.420166 114.320633,107.098221 119.555595,107.776276 
	C119.635094,107.172302 119.714592,106.568329 119.794090,105.964355 
	C115.324875,104.975525 110.855659,103.986702 106.339188,102.987419 
	C109.481850,95.989792 108.109467,90.965668 102.527458,89.365860 
	C98.073082,88.089241 94.986679,90.709846 91.587814,93.969795 
	C89.910408,95.564545 88.232994,97.159286 86.250786,99.043816 
	C92.813538,106.142593 99.112778,112.956322 105.412010,119.770058 
	C105.977257,119.353134 106.542503,118.936211 107.107750,118.519287 
	C104.740364,115.502060 102.372986,112.484840 99.973442,109.426628 
	C101.055992,108.202400 102.028458,107.102654 103.850716,105.742111 
M319.949677,176.995911 
	C321.762085,176.995911 323.574493,176.995911 325.610291,176.995911 
	C326.235382,173.935516 326.815063,171.097305 327.418610,168.142166 
	C333.023987,167.112534 337.135376,157.955475 344.428925,165.692017 
	C347.098572,161.146515 349.413666,157.204681 351.928772,152.922272 
	C347.469482,150.504395 344.748688,147.763580 344.720398,142.134048 
	C344.692688,136.631393 346.969696,133.528976 351.223328,131.057724 
	C349.450195,128.053864 347.640961,125.516220 346.390228,122.728050 
	C345.022400,119.678856 343.312927,119.429321 340.523376,120.765732 
	C339.008942,121.491287 336.420532,122.337364 335.538971,121.622200 
	C331.182587,118.088203 323.007721,117.784782 324.997925,109.168549 
	C319.996521,109.168549 315.702484,109.168549 311.120361,109.168549 
	C311.001617,113.381477 310.762482,117.520348 305.416626,118.787392 
	C292.210052,102.388626 274.679749,94.245941 254.039993,93.096771 
	C239.082794,92.263992 224.058655,92.625656 209.064087,92.487572 
	C207.962433,92.477425 206.858322,92.733986 205.128220,92.941933 
	C205.128220,99.474777 205.128220,105.779778 204.406204,112.195175 
	C201.926178,117.518471 199.575821,122.909050 196.873077,128.116760 
	C196.214371,129.385971 194.456665,130.774323 193.105423,130.883453 
	C183.874908,131.628784 175.001541,133.636902 166.871994,138.106903 
	C163.971558,139.701706 162.105316,139.542938 159.671066,137.293213 
	C154.981613,132.959213 149.950668,128.994690 145.064682,124.879776 
	C136.423309,133.028351 127.927345,140.920532 119.644325,149.030228 
	C118.791962,149.864761 118.509125,152.449036 119.155235,153.455078 
	C123.130600,159.645065 127.448997,165.614761 130.694595,170.279800 
	C128.302155,180.232239 126.043510,189.171021 124.041222,198.166855 
	C123.153770,202.153961 122.557671,205.711075 117.563774,206.978943 
	C112.278114,208.320877 107.247406,210.667007 101.405441,212.834152 
	C104.340042,225.263824 107.239815,237.545959 110.239937,250.253143 
	C116.801964,249.587372 123.011505,249.064621 129.189056,248.287506 
	C132.518555,247.868683 135.012024,247.888000 137.677948,250.956116 
	C143.335907,257.467651 149.454269,263.690338 156.075729,269.200012 
	C158.803421,271.469696 159.335541,273.473663 158.879547,276.243439 
	C158.085800,281.064972 156.899811,285.821228 156.074265,290.638489 
	C155.595551,293.431915 155.930740,295.504944 159.641312,296.371246 
	C167.551819,298.218140 175.256363,300.929077 183.130722,302.953613 
	C193.221863,305.548126 193.047638,305.320892 197.092255,295.462219 
	C198.899414,291.057312 201.744461,287.078217 204.297531,283.838806 
	C204.225510,292.902588 204.153503,301.966400 203.409912,311.155945 
	C199.281143,316.057404 195.243454,321.040894 190.956665,325.800018 
	C189.942139,326.926361 188.072250,327.946136 186.627899,327.904419 
	C180.928116,327.739716 175.241119,327.133026 169.469391,326.684082 
	C166.975800,337.255829 164.594284,347.352417 162.161026,357.668365 
	C167.925613,360.115814 173.658554,362.454681 179.287720,365.021179 
	C180.395157,365.526093 181.534088,366.763092 181.923416,367.911621 
	C184.425613,375.293213 186.852371,382.707275 188.991089,390.200012 
	C189.485031,391.930420 189.395798,394.407074 188.483856,395.851501 
	C185.618073,400.390656 182.232574,404.601654 179.840454,407.860565 
	C183.600952,412.138489 186.926956,416.277679 190.634842,420.040497 
	C194.345337,423.806091 198.437500,427.195587 202.610550,430.974731 
	C207.007401,427.551849 211.572144,424.356049 215.684052,420.656891 
	C217.979294,418.592072 220.001221,418.403503 222.703537,419.239868 
	C227.196365,420.630493 231.742889,421.868805 236.311890,422.986969 
	C241.970398,424.371796 249.094452,422.897888 250.812424,431.363190 
	C251.386475,434.191803 252.711502,436.942261 254.122345,439.490906 
	C254.701035,440.536346 256.643768,441.784393 257.576111,441.527161 
	C266.218994,439.142639 274.822815,436.584717 283.308075,433.695679 
	C284.537933,433.276978 285.844940,430.811188 285.786102,429.346039 
	C285.656921,426.126373 283.975159,422.880524 284.243774,419.758636 
	C284.504547,416.727997 281.649811,413.688049 284.800720,410.577179 
	C291.165771,404.292938 297.168549,397.641785 303.729279,390.710297 
	C308.955139,391.191223 315.286102,391.773804 321.552338,392.350464 
	C321.897705,391.820953 322.297638,391.448547 322.406433,391.004791 
	C323.958679,384.672211 325.523956,378.341980 326.982697,371.987457 
	C329.676300,360.253998 329.647949,360.247498 317.799469,356.090790 
	C318.874237,350.924591 320.364655,345.804901 320.948730,340.583801 
	C323.003510,322.216370 318.983429,305.079071 310.448029,288.945892 
	C311.963898,288.630646 313.578461,287.813080 314.978302,288.088165 
	C320.688202,289.210327 326.374969,290.516235 331.972656,292.099548 
	C333.483917,292.527039 335.203156,293.905457 335.870880,295.303864 
	C337.667786,299.067108 338.948578,303.076813 340.417419,306.944427 
	C347.858673,304.905731 354.868530,302.873322 361.945099,301.108429 
	C364.359100,300.506348 365.120117,299.792236 364.634247,297.083099 
	C363.393433,290.164398 360.897705,282.738678 369.873138,278.479218 
	C371.327576,277.788971 371.921448,275.463562 373.306183,274.411224 
	C376.217621,272.198792 376.884766,266.863892 382.241211,267.988251 
	C385.888519,268.753876 389.579254,269.312744 393.731964,270.049438 
	C395.822968,262.516052 398.010376,255.069946 399.827057,247.534470 
	C400.051849,246.602081 398.564606,244.678665 397.421997,244.099304 
	C393.397736,242.058701 389.177887,240.403763 386.254211,239.133423 
	C384.189911,232.153503 382.780304,226.125687 380.555389,220.415588 
	C379.499969,217.707001 379.549561,216.102325 381.421783,213.974838 
	C383.939362,211.114105 386.064911,207.908417 388.125519,205.161652 
	C381.859009,198.805740 376.149628,193.014923 370.414398,187.197906 
	C367.403870,189.497330 364.346985,191.708847 361.432465,194.094360 
	C358.743103,196.295593 356.476288,196.940598 352.851624,195.198776 
	C348.868256,193.284592 344.136810,192.457199 339.667664,192.178940 
	C336.345490,191.972092 335.006561,190.626892 334.012817,187.913498 
	C332.676758,184.265549 331.165985,180.681580 329.777191,177.188339 
	C325.807404,178.189362 322.215240,179.095169 318.775879,179.279083 
	C318.877594,178.548447 318.979279,177.817810 319.949677,176.995911 
M180.961914,453.533386 
	C179.255020,451.124420 180.710480,446.546448 175.560013,445.955627 
	C172.582748,455.028473 169.652405,463.958405 166.722046,472.888306 
	C167.454483,473.145569 168.186905,473.402863 168.919327,473.660126 
	C171.502457,466.351135 174.085587,459.042114 177.135635,450.411926 
	C180.020813,459.950867 182.391708,467.982635 184.913635,475.966675 
	C185.426178,477.589264 186.507889,479.032104 187.327209,480.557800 
	C187.790833,480.427338 188.254456,480.296844 188.718079,480.166382 
	C191.728500,471.227386 194.738937,462.288391 197.749359,453.349396 
	C197.173065,453.093201 196.596771,452.837036 196.020477,452.580841 
	C191.792114,459.013794 191.224365,467.188873 187.263092,474.736603 
	C185.047623,467.462769 183.047440,460.895721 180.961914,453.533386 
M463.275269,175.786316 
	C464.290100,173.665253 467.505951,171.919327 464.468597,169.080856 
	C447.587708,174.647354 440.011292,178.194229 439.189789,181.471191 
	C446.624176,178.626068 453.719940,175.910522 461.716370,172.850296 
	C460.614685,174.851929 460.073120,176.012924 459.376709,177.072144 
	C455.273468,183.312881 451.081299,189.496155 447.063782,195.791153 
	C446.458252,196.739990 446.534729,198.171692 446.515808,199.383453 
	C446.513611,199.525574 448.056763,200.032104 448.649384,199.791946 
	C456.720673,196.521408 464.751862,193.151733 472.776703,189.768143 
	C472.874481,189.726929 472.760681,189.183914 472.687775,187.687347 
	C465.306183,190.492661 458.225281,193.183685 449.738464,196.409012 
	C454.729797,188.860687 458.836700,182.649811 463.275269,175.786316 
M395.832916,404.599762 
	C402.047089,410.351349 408.261261,416.102936 414.752380,422.110870 
	C417.178864,419.331604 419.835052,416.783997 421.904175,413.825745 
	C427.934082,405.204834 424.242981,394.831665 414.202240,391.655548 
	C407.569427,389.557434 395.581299,396.053131 394.103577,402.630524 
	C394.016632,403.017548 394.885956,403.619385 395.832916,404.599762 
M104.819328,398.043640 
	C99.860756,390.253387 93.067177,387.652527 85.952377,390.820587 
	C78.547211,394.118011 74.981468,402.127106 77.755547,409.231750 
	C80.781784,416.982239 88.720512,420.657684 96.340736,417.836395 
	C103.949486,415.019318 107.628456,406.996796 104.819328,398.043640 
M334.423553,455.273376 
	C329.966187,449.101562 324.731750,446.765015 318.826630,448.311127 
	C312.820282,449.883728 308.626465,454.270569 307.872589,459.769379 
	C306.946045,466.527313 309.605560,472.404999 314.976715,475.470184 
	C319.973572,478.321777 327.134949,477.550415 331.670013,473.672241 
	C336.408173,469.620331 337.562805,463.133209 334.423553,455.273376 
M383.138092,444.272827 
	C385.156952,437.860260 383.703125,432.246490 378.761658,428.260864 
	C373.887817,424.329834 368.545685,423.931427 363.084290,426.921967 
	C360.067352,428.573975 357.228088,430.550507 354.105103,432.508362 
	C359.412964,440.578369 364.556671,448.398773 370.528809,457.478729 
	C374.999725,453.005219 378.977905,449.024750 383.138092,444.272827 
M53.339043,174.923264 
	C41.773811,169.492767 32.366924,175.729996 30.054733,190.606842 
	C38.530762,193.863297 47.058163,197.139481 55.518253,200.389816 
	C61.931149,187.735916 61.503868,181.949356 53.339043,174.923264 
M257.983185,477.618195 
	C258.357574,481.360321 258.731964,485.102417 259.129578,489.076660 
	C267.378754,488.225006 275.905853,488.886963 280.000610,479.920929 
	C282.364868,474.744141 281.864563,469.442871 278.225098,464.951752 
	C272.434357,457.805969 264.586334,460.009979 256.704834,460.289764 
	C257.146790,466.102936 257.549133,471.394562 257.983185,477.618195 
M129.940399,424.372986 
	C125.873154,430.640686 121.764702,436.882416 117.785362,443.205444 
	C117.221207,444.101898 117.285309,445.393677 117.058632,446.502502 
	C117.528236,446.635040 117.997833,446.767578 118.467438,446.900146 
	C120.821510,443.370789 123.175591,439.841431 125.702003,436.053680 
	C130.446198,439.130310 135.005951,442.087311 139.663101,445.107483 
	C137.236664,449.079285 134.993210,452.751587 132.429825,456.947571 
	C137.026199,456.132385 150.002167,435.909515 148.588303,431.973999 
	C145.991760,435.749390 143.630783,439.182281 141.096176,442.867584 
	C136.293381,439.760681 131.736343,436.812744 127.087166,433.805206 
	C129.065018,430.719208 130.928909,427.982056 132.578827,425.121490 
	C133.014374,424.366302 132.789627,423.230316 132.868088,422.269196 
	C132.004471,422.758881 131.140854,423.248566 129.940399,424.372986 
M358.852844,60.887856 
	C362.442383,62.583294 366.015747,64.314461 369.632385,65.949966 
	C370.579681,66.378357 371.661285,66.509735 372.681183,66.777512 
	C372.890137,66.256531 373.099060,65.735558 373.307983,65.214577 
	C368.286774,62.403042 363.265564,59.591507 357.970398,56.626560 
	C353.262360,65.119781 348.808289,73.154907 344.219025,81.433884 
	C349.691437,84.437897 354.699341,87.186920 359.707214,89.935944 
	C360.088837,89.331886 360.470459,88.727837 360.852051,88.123779 
	C356.579834,85.576164 352.307617,83.028549 347.832520,80.359962 
	C349.629791,77.208855 351.317871,74.249229 352.910126,71.457596 
	C357.284912,73.580894 361.192383,75.477364 365.099823,77.373840 
	C365.357452,76.816902 365.615082,76.259956 365.872711,75.703018 
	C361.993042,73.429588 358.113373,71.156166 354.285065,68.912834 
	C355.767242,66.127876 357.011383,63.790195 358.852844,60.887856 
M57.159134,141.062775 
	C63.864777,145.668259 70.570419,150.273727 77.567307,155.079239 
	C80.285080,149.678711 85.260414,145.703964 86.776871,139.910187 
	C86.320808,139.662720 85.864754,139.415253 85.408691,139.167786 
	C82.577713,143.171570 79.746735,147.175369 76.811020,151.327301 
	C73.738152,149.155609 71.096848,147.288910 68.460365,145.425629 
	C70.951019,141.271912 73.193848,137.531479 75.436684,133.791061 
	C74.889503,133.473328 74.342323,133.155579 73.795143,132.837845 
	C71.203735,136.507874 68.612335,140.177887 65.987282,143.895569 
	C62.916088,141.743698 60.387695,139.972153 57.804073,138.161911 
	C60.691509,133.730515 63.308178,129.714676 66.305931,125.113976 
	C64.779152,125.113976 64.056389,124.923241 63.897202,125.142212 
	C60.880756,129.291595 57.851566,133.438309 55.077633,137.748169 
	C54.766468,138.231628 55.979454,139.696045 57.159134,141.062775 
M194.038712,63.410522 
	C196.438873,64.168976 198.405701,67.654930 201.527664,64.497841 
	C195.729401,61.317429 189.980728,58.164223 184.174805,54.979610 
	C187.228745,49.282738 190.070099,43.982403 192.911453,38.682072 
	C192.366287,38.346432 191.821121,38.010792 191.275955,37.675152 
	C187.944733,43.162228 184.613510,48.649303 180.963531,54.661442 
	C179.424179,50.326176 178.125900,46.669842 176.827621,43.013508 
	C176.104996,43.258717 175.382385,43.503922 174.659760,43.749126 
	C177.421890,52.765335 180.184021,61.781544 182.946152,70.797752 
	C183.688309,70.619247 184.430466,70.440742 185.172623,70.262238 
	C184.071762,65.973618 182.970901,61.684994 181.702026,56.741867 
	C186.118332,59.122684 189.755508,61.083481 194.038712,63.410522 
M137.133850,63.713459 
	C139.594162,62.125751 142.054474,60.538044 144.514786,58.950340 
	C144.127106,58.410801 143.739410,57.871262 143.351715,57.331722 
	C138.410400,60.151443 133.469086,62.971169 128.185303,65.986320 
	C133.003632,74.370148 137.585373,82.342323 142.353821,90.639366 
	C147.668091,87.429329 152.573257,84.466408 157.478424,81.503487 
	C157.140564,80.903046 156.802704,80.302612 156.464844,79.702171 
	C152.135620,82.113312 147.806396,84.524452 143.351273,87.005714 
	C141.549896,83.844666 139.931702,81.005096 138.239517,78.035660 
	C142.215378,75.421486 145.983429,72.943954 149.751465,70.466423 
	C149.388931,69.983299 149.026382,69.500168 148.663834,69.017044 
	C144.725739,71.164818 140.787628,73.312592 136.723099,75.529327 
	C134.923645,72.295227 133.421173,69.594887 131.865494,66.798927 
	C133.615677,65.753090 135.025360,64.910713 137.133850,63.713459 
M437.749329,128.295227 
	C428.846375,130.263748 419.943420,132.232269 410.782410,134.257843 
	C411.191101,134.827927 426.483124,156.159103 426.743835,156.522781 
	C431.719818,148.311203 436.683289,140.291443 441.453857,132.158524 
	C443.218811,129.149628 441.765259,127.843254 437.749329,128.295227 
M446.051636,376.265717 
	C447.142731,375.939362 448.331024,375.790405 449.307800,375.255402 
	C453.143372,373.154480 455.363129,369.614441 454.757080,365.493011 
	C454.411285,363.141174 452.220306,360.190674 450.071503,359.169983 
	C446.503723,357.475342 443.044983,359.345978 440.268860,362.132446 
	C438.988068,363.418030 437.698120,364.957977 436.099396,365.585724 
	C434.638062,366.159607 432.307129,366.278168 431.179993,365.462891 
	C429.986725,364.599823 428.797241,361.923950 429.311340,360.878204 
	C430.437897,358.586639 432.559937,356.741150 434.446808,354.887939 
	C435.204498,354.143829 436.412537,353.858276 438.257660,352.949036 
	C432.441803,351.620728 428.080933,354.346771 426.985687,359.153290 
	C426.207977,362.566406 426.396790,365.858826 429.704529,368.020325 
	C432.940491,370.134857 436.025085,369.439178 438.844788,367.100616 
	C440.375519,365.831116 441.753937,364.376007 443.301544,363.129395 
	C445.669647,361.221924 448.761597,359.820953 450.598694,362.845062 
	C451.758057,364.753601 451.785889,368.619812 450.560242,370.385437 
	C449.026855,372.594391 445.686401,373.548920 442.605377,375.349182 
	C443.553223,375.707611 444.426819,376.037964 446.051636,376.265717 
M269.818115,31.730875 
	C263.938171,31.168732 260.711121,32.879993 259.730652,37.218971 
	C258.537628,42.498589 261.871826,44.654419 266.048126,46.281368 
	C267.877838,46.994164 269.790680,47.740849 271.323273,48.918026 
	C274.581940,51.420967 273.869202,55.507912 270.056335,57.140133 
	C266.446259,58.685520 263.646637,57.315392 261.272003,54.604588 
	C260.513519,53.738743 259.870819,52.771515 259.175140,51.850677 
	C258.769836,52.054741 258.364532,52.258804 257.959259,52.462872 
	C258.294922,53.556965 258.421783,54.779472 259.002106,55.723145 
	C261.653534,60.034859 266.038635,61.181343 270.247772,59.694374 
	C272.660614,58.841999 275.257904,55.748390 275.878967,53.202023 
	C276.946777,48.824188 273.471649,46.452766 269.699280,44.919792 
	C268.323395,44.360676 266.649323,44.046280 265.693268,43.057514 
	C264.253021,41.568031 261.978973,38.857800 262.461700,37.963947 
	C263.423950,36.182236 265.945496,34.444229 267.962830,34.265308 
	C269.814972,34.101051 271.847809,36.016075 273.807312,37.002571 
	C274.680725,37.442268 275.569427,37.851452 276.451202,38.274487 
	C276.781250,37.718006 277.111328,37.161526 277.441376,36.605049 
	C275.151031,35.028122 272.860687,33.451195 269.818115,31.730875 
M384.188324,103.498138 
	C383.560577,104.561913 382.932861,105.625694 382.305115,106.689468 
	C382.784180,107.054092 383.263245,107.418716 383.742310,107.783333 
	C386.599609,104.788704 389.456909,101.794075 392.264709,98.851326 
	C396.645447,100.466003 398.464417,106.106667 404.038483,105.428154 
	C400.784271,102.474281 397.530060,99.520416 394.179901,96.479469 
	C396.552368,93.797089 398.724121,91.341637 400.866119,88.919853 
	C405.460938,91.321358 407.953186,96.369331 412.825836,97.629089 
	C413.109222,97.230637 413.392578,96.832191 413.675964,96.433739 
	C409.413818,92.635292 405.151672,88.836853 400.773468,84.934944 
	C395.250305,91.138878 389.959442,97.081879 384.188324,103.498138 
M311.444580,57.846588 
	C310.600372,61.095421 309.756165,64.344254 308.911957,67.593086 
	C309.628967,67.785736 310.345978,67.978386 311.063019,68.171036 
	C313.575500,60.028824 316.087982,51.886612 318.657318,43.560211 
	C322.026611,44.419304 324.941620,45.162552 328.306702,46.020561 
	C326.345428,42.390129 311.142548,37.626247 305.854950,39.231117 
	C309.752167,40.601898 312.698914,41.638355 315.865051,42.751995 
	C314.477600,47.628735 313.129333,52.367874 311.444580,57.846588 
M50.069534,366.339111 
	C50.458378,364.291901 50.847221,362.244690 51.236065,360.197479 
	C46.957645,362.486969 46.986332,365.849915 48.464931,369.293915 
	C50.084686,373.066589 54.173325,374.871979 57.928341,373.072693 
	C64.022949,370.152374 69.894394,366.756378 75.775299,363.412201 
	C76.541946,362.976227 76.806862,361.657898 77.304176,360.748291 
	C70.824753,363.184082 65.191559,366.264099 59.623039,369.456970 
	C55.652077,371.733826 52.390568,371.657227 50.069534,366.339111 
z"/>
<path fill="#D34E25" opacity="1.000000" stroke="none" 
	d="
M204.118469,282.905853 
	C201.744461,287.078217 198.899414,291.057312 197.092255,295.462219 
	C193.047638,305.320892 193.221863,305.548126 183.130722,302.953613 
	C175.256363,300.929077 167.551819,298.218140 159.641312,296.371246 
	C155.930740,295.504944 155.595551,293.431915 156.074265,290.638489 
	C156.899811,285.821228 158.085800,281.064972 158.879547,276.243439 
	C159.335541,273.473663 158.803421,271.469696 156.075729,269.200012 
	C149.454269,263.690338 143.335907,257.467651 137.677948,250.956116 
	C135.012024,247.888000 132.518555,247.868683 129.189056,248.287506 
	C123.011505,249.064621 116.801964,249.587372 110.239937,250.253143 
	C107.239815,237.545959 104.340042,225.263824 101.405441,212.834152 
	C107.247406,210.667007 112.278114,208.320877 117.563774,206.978943 
	C122.557671,205.711075 123.153770,202.153961 124.041222,198.166855 
	C126.043510,189.171021 128.302155,180.232239 130.694595,170.279800 
	C127.448997,165.614761 123.130600,159.645065 119.155235,153.455078 
	C118.509125,152.449036 118.791962,149.864761 119.644325,149.030228 
	C127.927345,140.920532 136.423309,133.028351 145.064682,124.879776 
	C149.950668,128.994690 154.981613,132.959213 159.671066,137.293213 
	C162.105316,139.542938 163.971558,139.701706 166.871994,138.106903 
	C175.001541,133.636902 183.874908,131.628784 193.105423,130.883453 
	C194.456665,130.774323 196.214371,129.385971 196.873077,128.116760 
	C199.575821,122.909050 201.926178,117.518471 204.881836,112.593246 
	C205.343170,115.471764 205.328674,117.952202 205.314606,120.432640 
	C205.213303,138.282211 205.112106,156.131790 204.590988,173.980453 
	C191.749435,171.756836 180.992889,175.874039 173.589325,185.316940 
	C161.753906,200.412460 163.553085,219.586014 177.559189,232.155182 
	C188.554977,242.022888 208.179398,242.744827 219.470367,233.077942 
	C237.283539,232.589554 254.762314,234.438705 271.872803,230.409607 
	C271.336029,232.584854 270.812744,234.401291 269.902740,236.181152 
	C266.514954,239.696228 267.055481,242.833069 269.951569,246.382599 
	C273.443481,250.662445 276.478699,255.340668 279.402924,260.038574 
	C280.077942,261.123077 279.498901,262.988159 279.132660,264.413177 
	C254.548889,255.289902 229.417160,259.031281 204.118469,258.155853 
	C204.118469,266.990631 204.118469,274.948242 204.118469,282.905853 
z"/>
<path fill="#83992A" opacity="1.000000" stroke="none" 
	d="
M270.289459,236.217728 
	C270.812744,234.401291 271.336029,232.584854 272.184845,230.200836 
	C296.883606,221.453079 312.400208,205.044373 318.623047,180.000977 
	C322.215240,179.095169 325.807404,178.189362 329.777191,177.188339 
	C331.165985,180.681580 332.676758,184.265549 334.012817,187.913498 
	C335.006561,190.626892 336.345490,191.972092 339.667664,192.178940 
	C344.136810,192.457199 348.868256,193.284592 352.851624,195.198776 
	C356.476288,196.940598 358.743103,196.295593 361.432465,194.094360 
	C364.346985,191.708847 367.403870,189.497330 370.414398,187.197906 
	C376.149628,193.014923 381.859009,198.805740 388.125519,205.161652 
	C386.064911,207.908417 383.939362,211.114105 381.421783,213.974838 
	C379.549561,216.102325 379.499969,217.707001 380.555389,220.415588 
	C382.780304,226.125687 384.189911,232.153503 386.254211,239.133423 
	C389.177887,240.403763 393.397736,242.058701 397.421997,244.099304 
	C398.564606,244.678665 400.051849,246.602081 399.827057,247.534470 
	C398.010376,255.069946 395.822968,262.516052 393.731964,270.049438 
	C389.579254,269.312744 385.888519,268.753876 382.241211,267.988251 
	C376.884766,266.863892 376.217621,272.198792 373.306183,274.411224 
	C371.921448,275.463562 371.327576,277.788971 369.873138,278.479218 
	C360.897705,282.738678 363.393433,290.164398 364.634247,297.083099 
	C365.120117,299.792236 364.359100,300.506348 361.945099,301.108429 
	C354.868530,302.873322 347.858673,304.905731 340.417419,306.944427 
	C338.948578,303.076813 337.667786,299.067108 335.870880,295.303864 
	C335.203156,293.905457 333.483917,292.527039 331.972656,292.099548 
	C326.374969,290.516235 320.688202,289.210327 314.978302,288.088165 
	C313.578461,287.813080 311.963898,288.630646 309.793213,288.882690 
	C302.405273,282.283569 295.672119,275.747650 289.271973,269.044128 
	C289.746185,267.304596 290.310272,265.622833 289.936737,264.184570 
	C289.250092,261.540863 287.269470,259.078461 287.136139,256.473572 
	C286.655823,247.088913 281.643005,242.102036 272.926056,239.848038 
	C271.808960,239.559189 271.156921,237.471893 270.289459,236.217728 
M336.323303,220.000259 
	C321.149841,219.086060 309.386749,233.472092 314.083038,248.606903 
	C316.660736,256.913910 322.871155,262.037323 331.109131,263.808105 
	C338.825592,265.466797 346.226562,262.836639 351.252533,256.995880 
	C363.787933,242.428238 354.805206,221.770081 336.323303,220.000259 
z"/>
<path fill="#030202" opacity="1.000000" stroke="none" 
	d="
M288.938965,269.211731 
	C295.672119,275.747650 302.405273,282.283569 309.433716,288.974609 
	C318.983429,305.079071 323.003510,322.216370 320.948730,340.583801 
	C320.364655,345.804901 318.874237,350.924591 317.446228,356.733826 
	C306.949310,383.105469 287.723450,397.869324 260.673065,400.742279 
	C242.559586,402.666016 224.133545,401.650146 205.846924,401.920288 
	C205.411957,401.926697 204.971848,401.585266 204.081497,401.220795 
	C204.081497,371.209869 204.081497,341.120026 204.081482,311.030182 
	C204.153503,301.966400 204.225510,292.902588 204.208008,283.372314 
	C204.118469,274.948242 204.118469,266.990631 204.118469,258.155853 
	C229.417160,259.031281 254.548889,255.289902 279.426941,264.599091 
	C283.036652,266.314514 285.987823,267.763123 288.938965,269.211731 
M229.485733,277.189026 
	C229.485733,277.189026 229.085938,277.235138 228.423386,276.825348 
	C227.932236,276.939148 227.441086,277.052979 226.472717,276.693787 
	C222.974701,275.873108 223.043213,278.370636 223.046890,280.542908 
	C223.080368,300.328918 223.165726,320.114807 223.124146,340.559601 
	C223.204254,340.991577 223.284378,341.423553 223.227966,342.815002 
	C223.227966,356.062225 223.227966,369.309448 223.227966,383.040955 
	C237.786224,382.826477 251.532669,384.868927 265.588287,380.931641 
	C265.790497,380.682526 265.992706,380.433411 266.213928,380.226227 
	C266.213928,380.226227 266.240021,380.264160 267.004822,380.390381 
	C272.831665,377.311890 279.330780,375.065186 284.360352,371.000214 
	C299.970947,358.383453 303.625671,340.988831 301.542328,322.042755 
	C300.160278,309.474609 295.103424,298.468292 284.820312,289.499512 
	C278.420868,284.369415 271.515900,280.247833 262.731049,278.159088 
	C255.096817,277.725922 247.462601,277.292786 239.082993,276.791656 
	C238.338455,276.812500 237.593918,276.833344 236.638779,276.551941 
	C236.638779,276.551941 236.278320,276.628052 235.645554,276.281982 
	C233.850540,276.494171 232.055527,276.706360 229.998550,277.012726 
	C229.998550,277.012726 229.880920,277.265045 229.485733,277.189026 
z"/>
<path fill="#030302" opacity="1.000000" stroke="none" 
	d="
M318.699463,179.640015 
	C312.400208,205.044373 296.883606,221.453079 272.198334,229.842010 
	C254.762314,234.438705 237.283539,232.589554 219.005463,233.011215 
	C213.843979,233.016220 209.610703,233.016220 205.010864,233.016220 
	C205.010864,212.828888 205.010864,193.405136 205.010864,173.981369 
	C205.112106,156.131790 205.213303,138.282211 205.314606,120.432640 
	C205.328674,117.952202 205.343170,115.471764 205.242844,112.538048 
	C205.128220,105.779778 205.128220,99.474777 205.128220,92.941933 
	C206.858322,92.733986 207.962433,92.477425 209.064087,92.487572 
	C224.058655,92.625656 239.082794,92.263992 254.039993,93.096771 
	C274.679749,94.245941 292.210052,102.388626 305.822998,119.284805 
	C308.781311,123.871941 311.333191,127.961655 313.894775,132.433899 
	C315.652161,139.491074 317.399933,146.165710 319.134308,153.122498 
	C319.401520,153.615921 319.682068,153.827179 319.976868,154.021881 
	C319.991058,154.005310 319.958038,154.035385 319.901154,154.499176 
	C319.589844,162.337708 319.335419,169.712448 319.080994,177.087173 
	C318.979279,177.817810 318.877594,178.548447 318.699463,179.640015 
M288.087158,127.236214 
	C282.877716,123.306007 278.086823,118.570625 272.377197,115.602661 
	C257.626221,107.934830 241.404816,110.389862 225.623856,110.243065 
	C225.142838,110.238594 224.645004,112.040901 224.012161,113.928307 
	C224.050949,137.907349 224.089737,161.886398 224.001205,186.822250 
	C224.001205,196.171967 224.001205,205.521698 224.001205,214.817810 
	C226.803085,214.817810 228.945328,214.817810 232.000031,214.985703 
	C242.425827,214.323456 253.055984,214.714554 263.227356,212.740952 
	C276.940308,210.080185 287.974060,202.517212 294.886719,188.936020 
	C299.172180,181.211823 300.729919,172.825806 301.014801,163.185440 
	C300.674103,158.762024 300.897949,154.202667 299.872375,149.944183 
	C297.882782,141.682785 295.527313,133.409134 288.087158,127.236214 
z"/>
<path fill="#F28123" opacity="1.000000" stroke="none" 
	d="
M203.745697,311.093079 
	C204.081497,341.120026 204.081497,371.209869 204.081497,401.220795 
	C204.971848,401.585266 205.411957,401.926697 205.846924,401.920288 
	C224.133545,401.650146 242.559586,402.666016 260.673065,400.742279 
	C287.723450,397.869324 306.949310,383.105469 317.327637,357.114746 
	C329.647949,360.247498 329.676300,360.253998 326.982697,371.987457 
	C325.523956,378.341980 323.958679,384.672211 322.406433,391.004791 
	C322.297638,391.448547 321.897705,391.820953 321.552338,392.350464 
	C315.286102,391.773804 308.955139,391.191223 303.729279,390.710297 
	C297.168549,397.641785 291.165771,404.292938 284.800720,410.577179 
	C281.649811,413.688049 284.504547,416.727997 284.243774,419.758636 
	C283.975159,422.880524 285.656921,426.126373 285.786102,429.346039 
	C285.844940,430.811188 284.537933,433.276978 283.308075,433.695679 
	C274.822815,436.584717 266.218994,439.142639 257.576111,441.527161 
	C256.643768,441.784393 254.701035,440.536346 254.122345,439.490906 
	C252.711502,436.942261 251.386475,434.191803 250.812424,431.363190 
	C249.094452,422.897888 241.970398,424.371796 236.311890,422.986969 
	C231.742889,421.868805 227.196365,420.630493 222.703537,419.239868 
	C220.001221,418.403503 217.979294,418.592072 215.684052,420.656891 
	C211.572144,424.356049 207.007401,427.551849 202.610550,430.974731 
	C198.437500,427.195587 194.345337,423.806091 190.634842,420.040497 
	C186.926956,416.277679 183.600952,412.138489 179.840454,407.860565 
	C182.232574,404.601654 185.618073,400.390656 188.483856,395.851501 
	C189.395798,394.407074 189.485031,391.930420 188.991089,390.200012 
	C186.852371,382.707275 184.425613,375.293213 181.923416,367.911621 
	C181.534088,366.763092 180.395157,365.526093 179.287720,365.021179 
	C173.658554,362.454681 167.925613,360.115814 162.161026,357.668365 
	C164.594284,347.352417 166.975800,337.255829 169.469391,326.684082 
	C175.241119,327.133026 180.928116,327.739716 186.627899,327.904419 
	C188.072250,327.946136 189.942139,326.926361 190.956665,325.800018 
	C195.243454,321.040894 199.281143,316.057404 203.745697,311.093079 
z"/>
<path fill="#563F1C" opacity="1.000000" stroke="none" 
	d="
M319.515320,177.041534 
	C319.335419,169.712448 319.589844,162.337708 320.273499,154.481598 
	C321.602539,153.651993 322.538086,153.375031 323.396362,152.944107 
	C329.349274,149.955215 331.656982,143.993576 329.114716,138.256134 
	C326.212463,131.706375 320.584778,129.413544 313.885101,132.051361 
	C311.333191,127.961655 308.781311,123.871941 306.109619,119.468964 
	C310.762482,117.520348 311.001617,113.381477 311.120361,109.168549 
	C315.702484,109.168549 319.996521,109.168549 324.997925,109.168549 
	C323.007721,117.784782 331.182587,118.088203 335.538971,121.622200 
	C336.420532,122.337364 339.008942,121.491287 340.523376,120.765732 
	C343.312927,119.429321 345.022400,119.678856 346.390228,122.728050 
	C347.640961,125.516220 349.450195,128.053864 351.223328,131.057724 
	C346.969696,133.528976 344.692688,136.631393 344.720398,142.134048 
	C344.748688,147.763580 347.469482,150.504395 351.928772,152.922272 
	C349.413666,157.204681 347.098572,161.146515 344.428925,165.692017 
	C337.135376,157.955475 333.023987,167.112534 327.418610,168.142166 
	C326.815063,171.097305 326.235382,173.935516 325.610291,176.995911 
	C323.574493,176.995911 321.762085,176.995911 319.515320,177.041534 
z"/>
<path fill="#171717" opacity="1.000000" stroke="none" 
	d="
M181.004578,453.931030 
	C183.047440,460.895721 185.047623,467.462769 187.263092,474.736603 
	C191.224365,467.188873 191.792114,459.013794 196.020477,452.580841 
	C196.596771,452.837036 197.173065,453.093201 197.749359,453.349396 
	C194.738937,462.288391 191.728500,471.227386 188.718079,480.166382 
	C188.254456,480.296844 187.790833,480.427338 187.327209,480.557800 
	C186.507889,479.032104 185.426178,477.589264 184.913635,475.966675 
	C182.391708,467.982635 180.020813,459.950867 177.135635,450.411926 
	C174.085587,459.042114 171.502457,466.351135 168.919327,473.660126 
	C168.186905,473.402863 167.454483,473.145569 166.722046,472.888306 
	C169.652405,463.958405 172.582748,455.028473 175.560013,445.955627 
	C180.710480,446.546448 179.255020,451.124420 181.004578,453.931030 
z"/>
<path fill="#171717" opacity="1.000000" stroke="none" 
	d="
M463.109436,176.112625 
	C458.836700,182.649811 454.729797,188.860687 449.738464,196.409012 
	C458.225281,193.183685 465.306183,190.492661 472.687775,187.687347 
	C472.760681,189.183914 472.874481,189.726929 472.776703,189.768143 
	C464.751862,193.151733 456.720673,196.521408 448.649384,199.791946 
	C448.056763,200.032104 446.513611,199.525574 446.515808,199.383453 
	C446.534729,198.171692 446.458252,196.739990 447.063782,195.791153 
	C451.081299,189.496155 455.273468,183.312881 459.376709,177.072144 
	C460.073120,176.012924 460.614685,174.851929 461.716370,172.850296 
	C453.719940,175.910522 446.624176,178.626068 439.189789,181.471191 
	C440.011292,178.194229 447.587708,174.647354 464.468597,169.080856 
	C467.505951,171.919327 464.290100,173.665253 463.109436,176.112625 
z"/>
<path fill="#212121" opacity="1.000000" stroke="none" 
	d="
M395.571594,404.360535 
	C394.885956,403.619385 394.016632,403.017548 394.103577,402.630524 
	C395.581299,396.053131 407.569427,389.557434 414.202240,391.655548 
	C424.242981,394.831665 427.934082,405.204834 421.904175,413.825745 
	C419.835052,416.783997 417.178864,419.331604 414.752380,422.110870 
	C408.261261,416.102936 402.047089,410.351349 395.571594,404.360535 
M413.903564,417.569519 
	C419.097473,415.453827 422.431335,410.075073 422.040863,404.441132 
	C421.728516,399.934418 418.138489,395.511230 413.741974,394.216278 
	C407.793243,392.464172 402.681976,395.092987 397.648834,402.644562 
	C402.865173,407.447968 408.114532,412.281799 413.903564,417.569519 
z"/>
<path fill="#1E1E1E" opacity="1.000000" stroke="none" 
	d="
M104.946747,398.417786 
	C107.628456,406.996796 103.949486,415.019318 96.340736,417.836395 
	C88.720512,420.657684 80.781784,416.982239 77.755547,409.231750 
	C74.981468,402.127106 78.547211,394.118011 85.952377,390.820587 
	C93.067177,387.652527 99.860756,390.253387 104.946747,398.417786 
M80.944397,398.930695 
	C80.605804,399.855682 80.158989,400.756531 79.946075,401.709595 
	C78.477997,408.281067 82.237022,414.568268 88.371483,415.878082 
	C94.611565,417.210449 101.488663,412.910553 102.966476,406.752625 
	C104.535019,400.216583 101.034012,394.059387 94.597885,392.496765 
	C88.843460,391.099670 84.664536,393.816681 80.944397,398.930695 
z"/>
<path fill="#1C1C1C" opacity="1.000000" stroke="none" 
	d="
M334.627136,455.593994 
	C337.562805,463.133209 336.408173,469.620331 331.670013,473.672241 
	C327.134949,477.550415 319.973572,478.321777 314.976715,475.470184 
	C309.605560,472.404999 306.946045,466.527313 307.872589,459.769379 
	C308.626465,454.270569 312.820282,449.883728 318.826630,448.311127 
	C324.731750,446.765015 329.966187,449.101562 334.627136,455.593994 
M314.649292,452.917023 
	C309.713318,457.995514 308.868225,462.960693 311.990021,468.541565 
	C314.615967,473.235931 319.646667,475.639709 324.461395,474.496948 
	C329.235138,473.363983 332.376984,470.504425 333.470673,465.672241 
	C334.604431,460.663361 332.847534,456.462524 329.094543,453.262665 
	C324.819885,449.617950 320.059052,449.787750 314.649292,452.917023 
z"/>
<path fill="#1E1E1E" opacity="1.000000" stroke="none" 
	d="
M383.047058,444.658569 
	C378.977905,449.024750 374.999725,453.005219 370.528809,457.478729 
	C364.556671,448.398773 359.412964,440.578369 354.105103,432.508362 
	C357.228088,430.550507 360.067352,428.573975 363.084290,426.921967 
	C368.545685,423.931427 373.887817,424.329834 378.761658,428.260864 
	C383.703125,432.246490 385.156952,437.860260 383.047058,444.658569 
M368.731537,427.908966 
	C365.054901,429.443359 361.378235,430.977753 357.357941,432.655548 
	C362.233490,440.028229 366.463287,446.424438 370.661224,452.772461 
	C379.821472,447.657837 382.481598,443.596527 381.150818,437.294861 
	C379.945587,431.587616 375.983856,428.349365 368.731537,427.908966 
z"/>
<path fill="#1B1B1B" opacity="1.000000" stroke="none" 
	d="
M53.668236,175.116608 
	C61.503868,181.949356 61.931149,187.735916 55.518253,200.389816 
	C47.058163,197.139481 38.530762,193.863297 30.054733,190.606842 
	C32.366924,175.729996 41.773811,169.492767 53.668236,175.116608 
M57.581184,187.472946 
	C57.750687,180.503098 52.991730,175.823212 45.731155,175.393570 
	C39.306595,175.013367 34.471886,180.494705 33.354736,189.092117 
	C40.310463,191.762558 47.323437,194.454971 54.745281,197.304367 
	C55.730095,193.970612 56.563274,191.150162 57.581184,187.472946 
z"/>
<path fill="#171717" opacity="1.000000" stroke="none" 
	d="
M257.967316,477.152191 
	C257.549133,471.394562 257.146790,466.102936 256.704834,460.289764 
	C264.586334,460.009979 272.434357,457.805969 278.225098,464.951752 
	C281.864563,469.442871 282.364868,474.744141 280.000610,479.920929 
	C275.905853,488.886963 267.378754,488.225006 259.129578,489.076660 
	C258.731964,485.102417 258.357574,481.360321 257.967316,477.152191 
M277.722382,478.941895 
	C279.507874,473.797546 278.988953,469.034393 274.861969,465.226746 
	C270.468445,461.173126 265.262604,461.687927 259.616486,462.863342 
	C260.212555,470.775879 260.782257,478.338379 261.357239,485.970825 
	C267.937012,486.236572 273.814941,485.863434 277.722382,478.941895 
z"/>
<path fill="#1A1A1A" opacity="1.000000" stroke="none" 
	d="
M130.108826,424.055603 
	C131.140854,423.248566 132.004471,422.758881 132.868088,422.269196 
	C132.789627,423.230316 133.014374,424.366302 132.578827,425.121490 
	C130.928909,427.982056 129.065018,430.719208 127.087166,433.805206 
	C131.736343,436.812744 136.293381,439.760681 141.096176,442.867584 
	C143.630783,439.182281 145.991760,435.749390 148.588303,431.973999 
	C150.002167,435.909515 137.026199,456.132385 132.429825,456.947571 
	C134.993210,452.751587 137.236664,449.079285 139.663101,445.107483 
	C135.005951,442.087311 130.446198,439.130310 125.702003,436.053680 
	C123.175591,439.841431 120.821510,443.370789 118.467438,446.900146 
	C117.997833,446.767578 117.528236,446.635040 117.058632,446.502502 
	C117.285309,445.393677 117.221207,444.101898 117.785362,443.205444 
	C121.764702,436.882416 125.873154,430.640686 130.108826,424.055603 
z"/>
<path fill="#1B1B1B" opacity="1.000000" stroke="none" 
	d="
M358.554199,61.170185 
	C357.011383,63.790195 355.767242,66.127876 354.285065,68.912834 
	C358.113373,71.156166 361.993042,73.429588 365.872711,75.703018 
	C365.615082,76.259956 365.357452,76.816902 365.099823,77.373840 
	C361.192383,75.477364 357.284912,73.580894 352.910126,71.457596 
	C351.317871,74.249229 349.629791,77.208855 347.832520,80.359962 
	C352.307617,83.028549 356.579834,85.576164 360.852051,88.123779 
	C360.470459,88.727837 360.088837,89.331886 359.707214,89.935944 
	C354.699341,87.186920 349.691437,84.437897 344.219025,81.433884 
	C348.808289,73.154907 353.262360,65.119781 357.970398,56.626560 
	C363.265564,59.591507 368.286774,62.403042 373.307983,65.214577 
	C373.099060,65.735558 372.890137,66.256531 372.681183,66.777512 
	C371.661285,66.509735 370.579681,66.378357 369.632385,65.949966 
	C366.015747,64.314461 362.442383,62.583294 358.554199,61.170185 
z"/>
<path fill="#1E1E1E" opacity="1.000000" stroke="none" 
	d="
M56.822388,140.884171 
	C55.979454,139.696045 54.766468,138.231628 55.077633,137.748169 
	C57.851566,133.438309 60.880756,129.291595 63.897202,125.142212 
	C64.056389,124.923241 64.779152,125.113976 66.305931,125.113976 
	C63.308178,129.714676 60.691509,133.730515 57.804073,138.161911 
	C60.387695,139.972153 62.916088,141.743698 65.987282,143.895569 
	C68.612335,140.177887 71.203735,136.507874 73.795143,132.837845 
	C74.342323,133.155579 74.889503,133.473328 75.436684,133.791061 
	C73.193848,137.531479 70.951019,141.271912 68.460365,145.425629 
	C71.096848,147.288910 73.738152,149.155609 76.811020,151.327301 
	C79.746735,147.175369 82.577713,143.171570 85.408691,139.167786 
	C85.864754,139.415253 86.320808,139.662720 86.776871,139.910187 
	C85.260414,145.703964 80.285080,149.678711 77.567307,155.079239 
	C70.570419,150.273727 63.864777,145.668259 56.822388,140.884171 
z"/>
<path fill="#191919" opacity="1.000000" stroke="none" 
	d="
M193.715698,63.227398 
	C189.755508,61.083481 186.118332,59.122684 181.702026,56.741867 
	C182.970901,61.684994 184.071762,65.973618 185.172623,70.262238 
	C184.430466,70.440742 183.688309,70.619247 182.946152,70.797752 
	C180.184021,61.781544 177.421890,52.765335 174.659760,43.749126 
	C175.382385,43.503922 176.104996,43.258717 176.827621,43.013508 
	C178.125900,46.669842 179.424179,50.326176 180.963531,54.661442 
	C184.613510,48.649303 187.944733,43.162228 191.275955,37.675152 
	C191.821121,38.010792 192.366287,38.346432 192.911453,38.682072 
	C190.070099,43.982403 187.228745,49.282738 184.174805,54.979610 
	C189.980728,58.164223 195.729401,61.317429 201.527664,64.497841 
	C198.405701,67.654930 196.438873,64.168976 193.715698,63.227398 
z"/>
<path fill="#1A1A1A" opacity="1.000000" stroke="none" 
	d="
M136.784454,63.890900 
	C135.025360,64.910713 133.615677,65.753090 131.865494,66.798927 
	C133.421173,69.594887 134.923645,72.295227 136.723099,75.529327 
	C140.787628,73.312592 144.725739,71.164818 148.663834,69.017044 
	C149.026382,69.500168 149.388931,69.983299 149.751465,70.466423 
	C145.983429,72.943954 142.215378,75.421486 138.239517,78.035660 
	C139.931702,81.005096 141.549896,83.844666 143.351273,87.005714 
	C147.806396,84.524452 152.135620,82.113312 156.464844,79.702171 
	C156.802704,80.302612 157.140564,80.903046 157.478424,81.503487 
	C152.573257,84.466408 147.668091,87.429329 142.353821,90.639366 
	C137.585373,82.342323 133.003632,74.370148 128.185303,65.986320 
	C133.469086,62.971169 138.410400,60.151443 143.351715,57.331722 
	C143.739410,57.871262 144.127106,58.410801 144.514786,58.950340 
	C142.054474,60.538044 139.594162,62.125751 136.784454,63.890900 
z"/>
<path fill="#1C1C1C" opacity="1.000000" stroke="none" 
	d="
M438.152588,128.175385 
	C441.765259,127.843254 443.218811,129.149628 441.453857,132.158524 
	C436.683289,140.291443 431.719818,148.311203 426.743835,156.522781 
	C426.483124,156.159103 411.191101,134.827927 410.782410,134.257843 
	C419.943420,132.232269 428.846375,130.263748 438.152588,128.175385 
M426.943451,140.507355 
	C428.059479,142.015717 429.175507,143.524078 430.603363,145.453903 
	C433.657410,140.375305 436.344666,135.906601 439.626862,130.448547 
	C433.417511,131.782867 428.250214,132.893265 422.540619,134.120193 
	C424.128998,136.448746 425.319336,138.193756 426.943451,140.507355 
z"/>
<path fill="#151515" opacity="1.000000" stroke="none" 
	d="
M445.676025,376.317017 
	C444.426819,376.037964 443.553223,375.707611 442.605377,375.349182 
	C445.686401,373.548920 449.026855,372.594391 450.560242,370.385437 
	C451.785889,368.619812 451.758057,364.753601 450.598694,362.845062 
	C448.761597,359.820953 445.669647,361.221924 443.301544,363.129395 
	C441.753937,364.376007 440.375519,365.831116 438.844788,367.100616 
	C436.025085,369.439178 432.940491,370.134857 429.704529,368.020325 
	C426.396790,365.858826 426.207977,362.566406 426.985687,359.153290 
	C428.080933,354.346771 432.441803,351.620728 438.257660,352.949036 
	C436.412537,353.858276 435.204498,354.143829 434.446808,354.887939 
	C432.559937,356.741150 430.437897,358.586639 429.311340,360.878204 
	C428.797241,361.923950 429.986725,364.599823 431.179993,365.462891 
	C432.307129,366.278168 434.638062,366.159607 436.099396,365.585724 
	C437.698120,364.957977 438.988068,363.418030 440.268860,362.132446 
	C443.044983,359.345978 446.503723,357.475342 450.071503,359.169983 
	C452.220306,360.190674 454.411285,363.141174 454.757080,365.493011 
	C455.363129,369.614441 453.143372,373.154480 449.307800,375.255402 
	C448.331024,375.790405 447.142731,375.939362 445.676025,376.317017 
z"/>
<path fill="#191919" opacity="1.000000" stroke="none" 
	d="
M270.194214,31.802572 
	C272.860687,33.451195 275.151031,35.028122 277.441376,36.605049 
	C277.111328,37.161526 276.781250,37.718006 276.451202,38.274487 
	C275.569427,37.851452 274.680725,37.442268 273.807312,37.002571 
	C271.847809,36.016075 269.814972,34.101051 267.962830,34.265308 
	C265.945496,34.444229 263.423950,36.182236 262.461700,37.963947 
	C261.978973,38.857800 264.253021,41.568031 265.693268,43.057514 
	C266.649323,44.046280 268.323395,44.360676 269.699280,44.919792 
	C273.471649,46.452766 276.946777,48.824188 275.878967,53.202023 
	C275.257904,55.748390 272.660614,58.841999 270.247772,59.694374 
	C266.038635,61.181343 261.653534,60.034859 259.002106,55.723145 
	C258.421783,54.779472 258.294922,53.556965 257.959259,52.462872 
	C258.364532,52.258804 258.769836,52.054741 259.175140,51.850677 
	C259.870819,52.771515 260.513519,53.738743 261.272003,54.604588 
	C263.646637,57.315392 266.446259,58.685520 270.056335,57.140133 
	C273.869202,55.507912 274.581940,51.420967 271.323273,48.918026 
	C269.790680,47.740849 267.877838,46.994164 266.048126,46.281368 
	C261.871826,44.654419 258.537628,42.498589 259.730652,37.218971 
	C260.711121,32.879993 263.938171,31.168732 270.194214,31.802572 
z"/>
<path fill="#1E1E1E" opacity="1.000000" stroke="none" 
	d="
M384.428467,103.261505 
	C389.959442,97.081879 395.250305,91.138878 400.773468,84.934944 
	C405.151672,88.836853 409.413818,92.635292 413.675964,96.433739 
	C413.392578,96.832191 413.109222,97.230637 412.825836,97.629089 
	C407.953186,96.369331 405.460938,91.321358 400.866119,88.919853 
	C398.724121,91.341637 396.552368,93.797089 394.179901,96.479469 
	C397.530060,99.520416 400.784271,102.474281 404.038483,105.428154 
	C398.464417,106.106667 396.645447,100.466003 392.264709,98.851326 
	C389.456909,101.794075 386.599609,104.788704 383.742310,107.783333 
	C383.263245,107.418716 382.784180,107.054092 382.305115,106.689468 
	C382.932861,105.625694 383.560577,104.561913 384.428467,103.261505 
z"/>
<path fill="#171717" opacity="1.000000" stroke="none" 
	d="
M311.612793,57.476799 
	C313.129333,52.367874 314.477600,47.628735 315.865051,42.751995 
	C312.698914,41.638355 309.752167,40.601898 305.854950,39.231117 
	C311.142548,37.626247 326.345428,42.390129 328.306702,46.020561 
	C324.941620,45.162552 322.026611,44.419304 318.657318,43.560211 
	C316.087982,51.886612 313.575500,60.028824 311.063019,68.171036 
	C310.345978,67.978386 309.628967,67.785736 308.911957,67.593086 
	C309.756165,64.344254 310.600372,61.095421 311.612793,57.476799 
z"/>
<path fill="#191919" opacity="1.000000" stroke="none" 
	d="
M50.128441,366.718658 
	C52.390568,371.657227 55.652077,371.733826 59.623039,369.456970 
	C65.191559,366.264099 70.824753,363.184082 77.304176,360.748291 
	C76.806862,361.657898 76.541946,362.976227 75.775299,363.412201 
	C69.894394,366.756378 64.022949,370.152374 57.928341,373.072693 
	C54.173325,374.871979 50.084686,373.066589 48.464931,369.293915 
	C46.986332,365.849915 46.957645,362.486969 51.236065,360.197479 
	C50.847221,362.244690 50.458378,364.291901 50.128441,366.718658 
z"/>
<path fill="#212121" opacity="1.000000" stroke="none" 
	d="
M103.000916,106.002914 
	C102.028458,107.102654 101.055992,108.202400 99.973442,109.426628 
	C102.372986,112.484840 104.740364,115.502060 107.107750,118.519287 
	C106.542503,118.936211 105.977257,119.353134 105.412010,119.770058 
	C99.112778,112.956322 92.813538,106.142593 86.250786,99.043816 
	C88.232994,97.159286 89.910408,95.564545 92.356384,93.925980 
	C93.739265,93.918022 94.353569,93.953888 94.811432,94.280914 
	C93.095825,95.990654 91.536659,97.409233 89.824455,98.967049 
	C92.744591,102.033806 95.304771,104.722534 97.854294,107.400078 
	C99.924088,105.811165 101.490219,104.608902 103.046097,103.731125 
	C103.024200,104.704712 103.012566,105.353821 103.000916,106.002914 
z"/>
<path fill="#191919" opacity="1.000000" stroke="none" 
	d="
M103.425819,105.872513 
	C103.012566,105.353821 103.024200,104.704712 103.221001,103.406448 
	C105.882149,99.889923 107.263268,96.783218 104.210472,93.588608 
	C101.135818,90.371124 97.971985,91.949501 94.967873,93.989761 
	C94.353569,93.953888 93.739265,93.918022 92.667267,93.811813 
	C94.986679,90.709846 98.073082,88.089241 102.527458,89.365860 
	C108.109467,90.965668 109.481850,95.989792 106.339188,102.987419 
	C110.855659,103.986702 115.324875,104.975525 119.794090,105.964355 
	C119.714592,106.568329 119.635094,107.172302 119.555595,107.776276 
	C114.320633,107.098221 109.085678,106.420166 103.425819,105.872513 
z"/>
<path fill="#FFFFFF" opacity="1.000000" stroke="none" 
	d="
M204.590973,173.980453 
	C205.010864,193.405136 205.010864,212.828888 205.010864,233.016220 
	C209.610703,233.016220 213.843979,233.016220 218.542175,233.082947 
	C208.179398,242.744827 188.554977,242.022888 177.559189,232.155182 
	C163.553085,219.586014 161.753906,200.412460 173.589325,185.316940 
	C180.992889,175.874039 191.749435,171.756836 204.590973,173.980453 
z"/>
<path fill="#FFFFFF" opacity="1.000000" stroke="none" 
	d="
M289.271973,269.044128 
	C285.987823,267.763123 283.036652,266.314514 279.791229,264.679962 
	C279.498901,262.988159 280.077942,261.123077 279.402924,260.038574 
	C276.478699,255.340668 273.443481,250.662445 269.951569,246.382599 
	C267.055481,242.833069 266.514954,239.696228 269.902740,236.181152 
	C271.156921,237.471893 271.808960,239.559189 272.926056,239.848038 
	C281.643005,242.102036 286.655823,247.088913 287.136139,256.473572 
	C287.269470,259.078461 289.250092,261.540863 289.936737,264.184570 
	C290.310272,265.622833 289.746185,267.304596 289.271973,269.044128 
z"/>
<path fill="#FFFFFF" opacity="1.000000" stroke="none" 
	d="
M336.764374,220.000641 
	C354.805206,221.770081 363.787933,242.428238 351.252533,256.995880 
	C346.226562,262.836639 338.825592,265.466797 331.109131,263.808105 
	C322.871155,262.037323 316.660736,256.913910 314.083038,248.606903 
	C309.386749,233.472092 321.149841,219.086060 336.764374,220.000641 
z"/>
<path fill="#F08124" opacity="1.000000" stroke="none" 
	d="
M285.219971,290.086395 
	C295.103424,298.468292 300.160278,309.474609 301.542328,322.042755 
	C303.625671,340.988831 299.970947,358.383453 284.360352,371.000214 
	C279.330780,375.065186 272.831665,377.311890 266.569580,379.965332 
	C272.391235,371.381042 275.845367,362.622406 273.015045,352.077698 
	C270.033478,340.969604 257.687653,330.580658 246.845276,331.087311 
	C237.697922,331.514801 229.615219,334.830933 223.364487,341.855530 
	C223.284378,341.423553 223.204254,340.991577 223.425812,339.914673 
	C223.808517,320.790497 223.789612,302.309601 224.100723,283.834229 
	C224.138428,281.596405 225.956833,279.388550 226.949951,277.166809 
	C227.441086,277.052979 227.932236,276.939148 228.799133,277.201477 
	C229.410233,277.473450 229.645569,277.369232 229.880920,277.265045 
	C229.880920,277.265045 229.998550,277.012726 230.548447,277.036530 
	C232.824997,276.916229 234.551666,276.772125 236.278320,276.628052 
	C236.278320,276.628052 236.638779,276.551941 236.800568,277.089844 
	C239.388290,283.444427 241.814224,289.261139 243.536697,293.391113 
	C253.086319,295.719543 261.108856,297.716003 269.157623,299.600433 
	C270.585663,299.934753 272.605469,300.455200 273.526337,299.773804 
	C277.589111,296.767548 281.349854,293.353027 285.219971,290.086395 
z"/>
<path fill="#FEFEFD" opacity="1.000000" stroke="none" 
	d="
M223.296234,342.335266 
	C229.615219,334.830933 237.697922,331.514801 246.845276,331.087311 
	C257.687653,330.580658 270.033478,340.969604 273.015045,352.077698 
	C275.845367,362.622406 272.391235,371.381042 266.187164,379.902222 
	C266.240021,380.264160 266.213928,380.226227 265.944153,380.146606 
	C265.458130,380.325806 265.241913,380.584595 265.025696,380.843414 
	C251.532669,384.868927 237.786224,382.826477 223.227966,383.040955 
	C223.227966,369.309448 223.227966,356.062225 223.296234,342.335266 
z"/>
<path fill="#FEFEFE" opacity="1.000000" stroke="none" 
	d="
M285.020142,289.792969 
	C281.349854,293.353027 277.589111,296.767548 273.526337,299.773804 
	C272.605469,300.455200 270.585663,299.934753 269.157623,299.600433 
	C261.108856,297.716003 253.086319,295.719543 243.536697,293.391113 
	C241.814224,289.261139 239.388290,283.444427 236.905869,277.240967 
	C237.593918,276.833344 238.338455,276.812500 239.584122,277.163055 
	C241.490524,278.625061 242.918549,279.687714 244.297470,280.810699 
	C254.534775,289.147888 254.532089,289.152008 263.102386,279.163818 
	C263.205383,279.043793 263.243378,278.868011 263.311707,278.718231 
	C271.515900,280.247833 278.420868,284.369415 285.020142,289.792969 
z"/>
<path fill="#C64E28" opacity="1.000000" stroke="none" 
	d="
M263.021362,278.438660 
	C263.243378,278.868011 263.205383,279.043793 263.102386,279.163818 
	C254.532089,289.152008 254.534775,289.147888 244.297470,280.810699 
	C242.918549,279.687714 241.490524,278.625061 239.956818,277.197052 
	C247.462601,277.292786 255.096817,277.725922 263.021362,278.438660 
z"/>
<path fill="#C64E28" opacity="1.000000" stroke="none" 
	d="
M226.711334,276.930298 
	C225.956833,279.388550 224.138428,281.596405 224.100723,283.834229 
	C223.789612,302.309601 223.808517,320.790497 223.481689,339.585266 
	C223.165726,320.114807 223.080368,300.328918 223.046890,280.542908 
	C223.043213,278.370636 222.974701,275.873108 226.711334,276.930298 
z"/>
<path fill="#C64E28" opacity="1.000000" stroke="none" 
	d="
M235.961945,276.455017 
	C234.551666,276.772125 232.824997,276.916229 230.679428,276.989441 
	C232.055527,276.706360 233.850540,276.494171 235.961945,276.455017 
z"/>
<path fill="#F08124" opacity="1.000000" stroke="none" 
	d="
M265.307007,380.887512 
	C265.241913,380.584595 265.458130,380.325806 265.934631,380.125671 
	C265.992706,380.433411 265.790497,380.682526 265.307007,380.887512 
z"/>
<path fill="#C64E28" opacity="1.000000" stroke="none" 
	d="
M229.683319,277.227051 
	C229.645569,277.369232 229.410233,277.473450 229.130402,277.406372 
	C229.085938,277.235138 229.485733,277.189026 229.683319,277.227051 
z"/>
<path fill="#D34E24" opacity="1.000000" stroke="none" 
	d="
M224.128510,185.865448 
	C224.089737,161.886398 224.050949,137.907349 224.419434,113.630234 
	C229.933823,114.879555 235.098557,116.268867 240.104492,118.093765 
	C241.249481,118.511169 242.676804,120.519073 242.556580,121.643364 
	C241.951981,127.296501 241.217102,132.984772 239.834000,138.486252 
	C239.067078,141.536789 240.181900,142.406906 242.273590,144.223633 
	C249.884338,150.834000 257.052704,157.953720 264.940277,165.403061 
	C271.838409,164.923325 280.130859,164.346619 288.343323,163.775482 
	C290.478699,172.781677 292.458282,181.130783 294.437866,189.479904 
	C287.974060,202.517212 276.940308,210.080185 263.227356,212.740952 
	C253.055984,214.714554 242.425827,214.323456 231.731079,214.568130 
	C231.638367,209.339310 232.657776,204.364899 231.766754,199.760178 
	C230.765961,194.588226 229.274872,189.048996 224.128510,185.865448 
z"/>
<path fill="#FEFEFE" opacity="1.000000" stroke="none" 
	d="
M294.662292,189.207962 
	C292.458282,181.130783 290.478699,172.781677 288.343323,163.775482 
	C280.130859,164.346619 271.838409,164.923325 264.940277,165.403061 
	C257.052704,157.953720 249.884338,150.834000 242.273590,144.223633 
	C240.181900,142.406906 239.067078,141.536789 239.834000,138.486252 
	C241.217102,132.984772 241.951981,127.296501 242.556580,121.643364 
	C242.676804,120.519073 241.249481,118.511169 240.104492,118.093765 
	C235.098557,116.268867 229.933823,114.879555 224.490875,113.166512 
	C224.645004,112.040901 225.142838,110.238594 225.623856,110.243065 
	C241.404816,110.389862 257.626221,107.934830 272.377197,115.602661 
	C278.086823,118.570625 282.877716,123.306007 287.756348,127.706833 
	C286.869598,129.488907 286.313629,130.800369 285.650269,132.365234 
	C290.835052,134.571823 292.806458,138.308624 292.008759,143.520813 
	C291.601868,146.179428 293.725555,149.641922 290.130157,151.278931 
	C285.587158,153.347305 286.059967,155.754517 288.942841,158.848816 
	C289.564026,159.515564 289.744263,160.590637 290.136261,161.473785 
	C291.645081,164.872894 293.562927,166.882080 297.466248,164.197540 
	C298.260101,163.651535 299.745026,164.110291 300.911346,164.105835 
	C300.729919,172.825806 299.172180,181.211823 294.662292,189.207962 
z"/>
<path fill="#553F1C" opacity="1.000000" stroke="none" 
	d="
M300.963074,163.645630 
	C299.745026,164.110291 298.260101,163.651535 297.466248,164.197540 
	C293.562927,166.882080 291.645081,164.872894 290.136261,161.473785 
	C289.744263,160.590637 289.564026,159.515564 288.942841,158.848816 
	C286.059967,155.754517 285.587158,153.347305 290.130157,151.278931 
	C293.725555,149.641922 291.601868,146.179428 292.008759,143.520813 
	C292.806458,138.308624 290.835052,134.571823 285.650269,132.365234 
	C286.313629,130.800369 286.869598,129.488907 287.783783,128.055725 
	C295.527313,133.409134 297.882782,141.682785 299.872375,149.944183 
	C300.897949,154.202667 300.674103,158.762024 300.963074,163.645630 
z"/>
<path fill="#FEFEFD" opacity="1.000000" stroke="none" 
	d="
M313.894775,132.433899 
	C320.584778,129.413544 326.212463,131.706375 329.114716,138.256134 
	C331.656982,143.993576 329.349274,149.955215 323.396362,152.944107 
	C322.538086,153.375031 321.602539,153.651993 320.330383,154.017792 
	C319.958038,154.035385 319.991058,154.005310 319.950256,153.758636 
	C319.655518,153.288086 319.401611,153.064209 319.147675,152.840347 
	C317.399933,146.165710 315.652161,139.491074 313.894775,132.433899 
z"/>
<path fill="#FEFEFE" opacity="1.000000" stroke="none" 
	d="
M224.064850,186.343842 
	C229.274872,189.048996 230.765961,194.588226 231.766754,199.760178 
	C232.657776,204.364899 231.638367,209.339310 231.274841,214.484192 
	C228.945328,214.817810 226.803085,214.817810 224.001205,214.817810 
	C224.001205,205.521698 224.001205,196.171967 224.064850,186.343842 
z"/>
<path fill="#563F1C" opacity="1.000000" stroke="none" 
	d="
M319.134308,153.122498 
	C319.401611,153.064209 319.655518,153.288086 319.936035,153.775192 
	C319.682068,153.827179 319.401520,153.615921 319.134308,153.122498 
z"/>
<path fill="#FBFBFB" opacity="1.000000" stroke="none" 
	d="
M413.633728,417.342560 
	C408.114532,412.281799 402.865173,407.447968 397.648834,402.644562 
	C402.681976,395.092987 407.793243,392.464172 413.741974,394.216278 
	C418.138489,395.511230 421.728516,399.934418 422.040863,404.441132 
	C422.431335,410.075073 419.097473,415.453827 413.633728,417.342560 
z"/>
<path fill="#FBFBFB" opacity="1.000000" stroke="none" 
	d="
M81.127518,398.577789 
	C84.664536,393.816681 88.843460,391.099670 94.597885,392.496765 
	C101.034012,394.059387 104.535019,400.216583 102.966476,406.752625 
	C101.488663,412.910553 94.611565,417.210449 88.371483,415.878082 
	C82.237022,414.568268 78.477997,408.281067 79.946075,401.709595 
	C80.158989,400.756531 80.605804,399.855682 81.127518,398.577789 
z"/>
<path fill="#FAFAFA" opacity="1.000000" stroke="none" 
	d="
M314.961578,452.672180 
	C320.059052,449.787750 324.819885,449.617950 329.094543,453.262665 
	C332.847534,456.462524 334.604431,460.663361 333.470673,465.672241 
	C332.376984,470.504425 329.235138,473.363983 324.461395,474.496948 
	C319.646667,475.639709 314.615967,473.235931 311.990021,468.541565 
	C308.868225,462.960693 309.713318,457.995514 314.961578,452.672180 
z"/>
<path fill="#FAFAFA" opacity="1.000000" stroke="none" 
	d="
M369.145447,427.864594 
	C375.983856,428.349365 379.945587,431.587616 381.150818,437.294861 
	C382.481598,443.596527 379.821472,447.657837 370.661224,452.772461 
	C366.463287,446.424438 362.233490,440.028229 357.357941,432.655548 
	C361.378235,430.977753 365.054901,429.443359 369.145447,427.864594 
z"/>
<path fill="#F9F9F9" opacity="1.000000" stroke="none" 
	d="
M57.488819,187.901337 
	C56.563274,191.150162 55.730095,193.970612 54.745281,197.304367 
	C47.323437,194.454971 40.310463,191.762558 33.354736,189.092117 
	C34.471886,180.494705 39.306595,175.013367 45.731155,175.393570 
	C52.991730,175.823212 57.750687,180.503098 57.488819,187.901337 
z"/>
<path fill="#F9F9F9" opacity="1.000000" stroke="none" 
	d="
M277.510406,479.259491 
	C273.814941,485.863434 267.937012,486.236572 261.357239,485.970825 
	C260.782257,478.338379 260.212555,470.775879 259.616486,462.863342 
	C265.262604,461.687927 270.468445,461.173126 274.861969,465.226746 
	C278.988953,469.034393 279.507874,473.797546 277.510406,479.259491 
z"/>
<path fill="#F7F7F7" opacity="1.000000" stroke="none" 
	d="
M426.726562,140.223068 
	C425.319336,138.193756 424.128998,136.448746 422.540619,134.120193 
	C428.250214,132.893265 433.417511,131.782867 439.626862,130.448547 
	C436.344666,135.906601 433.657410,140.375305 430.603363,145.453903 
	C429.175507,143.524078 428.059479,142.015717 426.726562,140.223068 
z"/>
<path fill="#F7F7F7" opacity="1.000000" stroke="none" 
	d="
M94.811432,94.280922 
	C97.971985,91.949501 101.135818,90.371124 104.210472,93.588608 
	C107.263268,96.783218 105.882149,99.889923 103.231247,103.081955 
	C101.490219,104.608902 99.924088,105.811165 97.854294,107.400078 
	C95.304771,104.722534 92.744591,102.033806 89.824455,98.967049 
	C91.536659,97.409233 93.095825,95.990654 94.811432,94.280922 
z"/>
</svg>