<svg xmlns="http://www.w3.org/2000/svg" xmlns:xlink="http://www.w3.org/1999/xlink" width="500" zoomAndPan="magnify" viewBox="0 0 375 374.999991" height="500" preserveAspectRatio="xMidYMid meet" version="1.0"><defs><filter x="0%" y="0%" width="100%" height="100%" id="8a41c612de"><feColorMatrix values="0 0 0 0 1 0 0 0 0 1 0 0 0 0 1 0 0 0 1 0" color-interpolation-filters="sRGB"/></filter><g/><mask id="113882c723"><g filter="url(#8a41c612de)"><rect x="-37.5" width="450" fill="#000000" y="-37.499999" height="449.999989" fill-opacity="0.43"/></g></mask><clipPath id="e2c7db6108"><path d="M 1.09375 1.082031 L 120 1.082031 L 120 120 L 1.09375 120 Z M 1.09375 1.082031 " clip-rule="nonzero"/></clipPath><clipPath id="ae22433447"><path d="M 102 42 L 181.09375 42 L 181.09375 121 L 102 121 Z M 102 42 " clip-rule="nonzero"/></clipPath><clipPath id="cc5cc62a84"><path d="M 37 102 L 139 102 L 139 202.082031 L 37 202.082031 Z M 37 102 " clip-rule="nonzero"/></clipPath><clipPath id="435255b028"><path d="M 112 1.082031 L 152 1.082031 L 152 43 L 112 43 Z M 112 1.082031 " clip-rule="nonzero"/></clipPath><clipPath id="e6ffa25a7c"><rect x="0" width="182" y="0" height="203"/></clipPath></defs><g mask="url(#113882c723)"><g transform="matrix(1, 0, 0, 1, 103, 86)"><g clip-path="url(#e6ffa25a7c)"><g clip-path="url(#e2c7db6108)"><path fill="#d73f23" d="M 54.464844 79.875 C 43.765625 76.785156 37.59375 65.597656 40.683594 54.890625 C 43.769531 44.183594 54.949219 38.007812 65.652344 41.097656 C 76.351562 44.1875 82.519531 55.375 79.433594 66.085938 C 76.34375 76.792969 65.164062 82.96875 54.464844 79.875 Z M 100.652344 81.574219 C 102.015625 78.9375 103.140625 76.136719 103.996094 73.179688 C 105.09375 69.363281 105.675781 65.523438 105.78125 61.730469 L 119.042969 56.71875 L 113.550781 34.511719 L 98.59375 35.847656 C 94.925781 30.097656 89.972656 25.152344 83.996094 21.484375 L 86.289062 7.484375 L 64.324219 1.136719 L 58.007812 14.753906 C 51.03125 15.070312 44.292969 16.988281 38.285156 20.246094 L 27.304688 11.25 L 10.832031 27.113281 L 19.460938 39.402344 C 18.101562 42.035156 16.972656 44.835938 16.121094 47.796875 C 15.019531 51.609375 14.441406 55.449219 14.332031 59.242188 L 1.074219 64.253906 L 6.5625 86.460938 L 21.523438 85.125 C 25.191406 90.875 30.144531 95.820312 36.117188 99.492188 L 33.824219 113.492188 L 55.789062 119.835938 L 62.105469 106.21875 C 69.085938 105.90625 75.820312 103.984375 81.832031 100.726562 L 92.8125 109.722656 L 109.285156 93.859375 L 100.652344 81.574219 " fill-opacity="1" fill-rule="nonzero"/></g><g clip-path="url(#ae22433447)"><path fill="#338b8c" d="M 145.273438 94.542969 C 138.164062 96.449219 130.859375 92.226562 128.953125 85.113281 C 127.046875 78 131.265625 70.6875 138.375 68.777344 C 145.484375 66.871094 152.789062 71.09375 154.695312 78.207031 C 156.601562 85.320312 152.382812 92.636719 145.273438 94.542969 Z M 171.984375 79.722656 C 171.859375 77.769531 171.539062 75.796875 171.011719 73.832031 C 170.332031 71.296875 169.351562 68.925781 168.117188 66.746094 L 173.914062 59.378906 L 163.230469 48.6875 L 155.222656 54.554688 C 151.1875 52.554688 146.695312 51.449219 142.066406 51.414062 L 138.585938 42.707031 L 123.996094 46.621094 L 125.066406 56.484375 C 121.222656 59.046875 118.066406 62.433594 115.777344 66.328125 L 106.496094 64.988281 L 102.585938 79.59375 L 111.660156 83.597656 C 111.789062 85.550781 112.109375 87.523438 112.632812 89.488281 C 113.3125 92.023438 114.292969 94.394531 115.527344 96.578125 L 109.734375 103.941406 L 120.417969 114.632812 L 128.425781 108.765625 C 132.460938 110.765625 136.949219 111.875 141.582031 111.90625 L 145.058594 120.613281 L 159.652344 116.699219 L 158.582031 106.835938 C 162.425781 104.277344 165.582031 100.886719 167.871094 96.992188 L 177.152344 98.332031 L 181.058594 83.726562 L 171.984375 79.722656 " fill-opacity="1" fill-rule="nonzero"/></g><g clip-path="url(#cc5cc62a84)"><path fill="#e0a11b" d="M 76.363281 164.816406 C 69.496094 158.363281 69.152344 147.5625 75.597656 140.691406 C 82.042969 133.820312 92.835938 133.476562 99.703125 139.925781 C 106.570312 146.375 106.914062 157.179688 100.46875 164.050781 C 94.023438 170.921875 83.230469 171.265625 76.363281 164.816406 Z M 110.484375 183.890625 C 112.523438 182.429688 114.449219 180.753906 116.230469 178.855469 C 118.527344 176.410156 120.441406 173.742188 121.980469 170.925781 L 133.894531 172.261719 L 138.304688 153.425781 L 126.527344 148.667969 C 125.976562 142.925781 124.152344 137.292969 121.0625 132.226562 L 128.179688 122.570312 L 114.082031 109.328125 L 104.085938 117.152344 C 98.710938 114.695312 92.898438 113.546875 87.121094 113.683594 L 82.316406 102.679688 L 63.808594 108.277344 L 65.582031 120.851562 C 63.542969 122.3125 61.613281 123.988281 59.835938 125.886719 C 57.539062 128.332031 55.625 131 54.085938 133.816406 L 42.171875 132.480469 L 37.765625 151.316406 L 49.542969 156.074219 C 50.089844 161.816406 51.914062 167.449219 55.003906 172.511719 L 47.886719 182.171875 L 61.984375 195.414062 L 71.980469 187.589844 C 77.355469 190.046875 83.167969 191.195312 88.945312 191.058594 L 93.75 202.0625 L 112.257812 196.464844 L 110.484375 183.890625 " fill-opacity="1" fill-rule="nonzero"/></g><g clip-path="url(#435255b028)"><path fill="#4a3529" d="M 131.886719 28.945312 C 127.976562 28.945312 124.804688 25.773438 124.804688 21.855469 C 124.804688 17.941406 127.976562 14.769531 131.886719 14.769531 C 135.796875 14.769531 138.96875 17.941406 138.96875 21.855469 C 138.96875 25.773438 135.796875 28.945312 131.886719 28.945312 Z M 147.636719 25.015625 C 147.839844 23.992188 147.945312 22.9375 147.945312 21.855469 C 147.945312 20.460938 147.769531 19.109375 147.4375 17.820312 L 151.421875 14.835938 L 147.410156 7.878906 L 142.492188 9.789062 C 140.695312 8.207031 138.542969 7.019531 136.167969 6.363281 L 135.578125 1.417969 L 127.550781 1.417969 L 126.746094 6.625 C 124.421875 7.414062 122.335938 8.71875 120.625 10.402344 L 116.042969 8.433594 L 112.03125 15.394531 L 116.140625 18.699219 C 115.9375 19.722656 115.828125 20.777344 115.828125 21.855469 C 115.828125 23.25 116.007812 24.601562 116.339844 25.894531 L 112.351562 28.875 L 116.367188 35.835938 L 121.28125 33.925781 C 123.078125 35.507812 125.230469 36.695312 127.605469 37.347656 L 128.195312 42.296875 L 136.222656 42.296875 L 137.027344 37.085938 C 139.355469 36.300781 141.4375 34.996094 143.148438 33.3125 L 147.730469 35.277344 L 151.742188 28.320312 L 147.636719 25.015625 " fill-opacity="1" fill-rule="nonzero"/></g></g></g></g><g fill="#000000" fill-opacity="1"><g transform="translate(52.653033, 152.584921)"><g><path d="M -18.972656 -10.546875 L 1.078125 -2.792969 L 3.386719 -8.757812 C 5.65625 -14.621094 3.382812 -20.917969 -2.585938 -23.226562 C -8.242188 -25.417969 -14.246094 -22.765625 -16.664062 -16.515625 Z M -0.078125 -5.652344 L -16.1875 -11.886719 L -14.730469 -15.648438 C -12.710938 -20.875 -7.984375 -22.816406 -3.375 -21.03125 C 1.3125 -19.21875 3.347656 -14.515625 1.386719 -9.445312 Z M -0.078125 -5.652344 "/></g></g></g><g fill="#000000" fill-opacity="1"><g transform="translate(68.133044, 118.208932)"><g><path d="M -6.703125 -24.542969 L -8.425781 -25.726562 L -16.035156 -14.628906 L 1.691406 -2.46875 L 9.367188 -13.652344 L 7.644531 -14.832031 L 1.246094 -5.503906 L -5.183594 -9.917969 L 0.609375 -18.363281 L -1.109375 -19.542969 L -6.90625 -11.097656 L -13.042969 -15.308594 Z M -6.703125 -24.542969 "/></g></g></g><g fill="#000000" fill-opacity="1"><g transform="translate(88.609703, 91.311085)"><g><path d="M -2.042969 -9.953125 L 1.183594 -12.933594 L 11.75 -10.832031 L 13.765625 -12.695312 L 2.722656 -14.871094 C 4.804688 -17.351562 5.386719 -20.691406 2.890625 -23.394531 C 0.621094 -25.859375 -3.046875 -26.433594 -6.902344 -22.878906 L -12.375 -17.835938 L 2.199219 -2.027344 L 3.855469 -3.554688 Z M -3.441406 -11.46875 L -9.285156 -17.808594 L -5.570312 -21.230469 C -2.5625 -24.003906 -0.160156 -23.34375 1.273438 -21.789062 C 2.742188 -20.195312 3.101562 -17.5 0.234375 -14.855469 Z M -3.441406 -11.46875 "/></g></g></g><g fill="#000000" fill-opacity="1"><g transform="translate(115.793615, 68.7384)"><g><path d="M 4.621094 -25.019531 L 3.585938 -26.832031 L -8.089844 -20.144531 L 2.597656 -1.488281 L 14.367188 -8.230469 L 13.328125 -10.039062 L 3.511719 -4.417969 L -0.363281 -11.183594 L 8.523438 -16.273438 L 7.488281 -18.085938 L -1.398438 -12.996094 L -5.097656 -19.453125 Z M 4.621094 -25.019531 "/></g></g></g><g fill="#000000" fill-opacity="1"><g transform="translate(145.961959, 53.424566)"><g><path d="M -1.324219 -22.089844 L -3.476562 -21.425781 L 2.859375 -0.882812 L 5.011719 -1.546875 L 1.960938 -11.4375 L 2.117188 -11.484375 L 14.796875 -4.5625 L 17.84375 -5.503906 L 3.992188 -12.957031 L 11.03125 -25.902344 L 8.015625 -24.972656 L 1.605469 -13.050781 L 1.476562 -13.011719 Z M -1.324219 -22.089844 "/></g></g></g><g fill="#000000" fill-opacity="1"><g transform="translate(179.405772, 45.210169)"><g/></g></g><g fill="#000000" fill-opacity="1"><g transform="translate(202.95239, 43.628683)"><g><path d="M 8.746094 0.867188 C 13.046875 1.183594 15.859375 -1.472656 16.089844 -4.621094 C 16.195312 -6.042969 15.710938 -7.292969 14.878906 -8.34375 C 13.796875 -9.71875 11.941406 -10.707031 9.683594 -11.453125 C 6.515625 -12.515625 5.25 -13.679688 5.394531 -15.625 C 5.5625 -17.871094 7.800781 -19.109375 10.101562 -18.941406 C 12.949219 -18.730469 14.167969 -16.988281 14.75 -15.15625 L 16.746094 -16.082031 C 15.972656 -18.699219 13.871094 -20.78125 10.3125 -21.042969 C 6.75 -21.308594 3.414062 -19.351562 3.140625 -15.683594 C 2.921875 -12.695312 4.78125 -10.660156 9.109375 -9.265625 C 12.230469 -8.265625 13.945312 -6.871094 13.777344 -4.625 C 13.613281 -2.378906 11.421875 -1.054688 8.902344 -1.242188 C 5.972656 -1.457031 4.558594 -3.214844 3.730469 -5.78125 L 1.710938 -4.910156 C 2.703125 -1.5625 4.996094 0.589844 8.746094 0.867188 Z M 8.746094 0.867188 "/></g></g></g><g fill="#000000" fill-opacity="1"><g transform="translate(235.590787, 47.700945)"><g><path d="M 12.976562 -16.363281 L 7.449219 2.21875 L 9.632812 2.867188 L 15.164062 -15.710938 L 22.03125 -13.667969 L 22.632812 -15.695312 L 6.6875 -20.441406 L 6.082031 -18.414062 Z M 12.976562 -16.363281 "/></g></g></g><g fill="#000000" fill-opacity="1"><g transform="translate(267.095031, 58.838579)"><g><path d="M 23.8125 -8.964844 L 24.828125 -10.789062 L 13.070312 -17.332031 L 2.613281 1.457031 L 14.46875 8.050781 L 15.480469 6.230469 L 5.597656 0.726562 L 9.390625 -6.085938 L 18.339844 -1.105469 L 19.355469 -2.929688 L 10.40625 -7.910156 L 14.023438 -14.410156 Z M 23.8125 -8.964844 "/></g></g></g><g fill="#000000" fill-opacity="1"><g transform="translate(295.793231, 76.804419)"><g><path d="M 17.863281 3.03125 L 19.246094 1.46875 L 11.667969 -5.253906 L 16.785156 -11.027344 L 25.066406 -3.683594 L 26.46875 -5.265625 L 16.503906 -14.101562 L 2.238281 1.984375 L 3.925781 3.480469 L 10.28125 -3.691406 Z M 17.863281 3.03125 "/></g></g></g><g fill="#000000" fill-opacity="1"><g transform="translate(319.431353, 99.837751)"><g><path d="M 1.386719 1.945312 L 7.230469 0.683594 L 14.027344 10.238281 L 10.90625 15.324219 L 12.292969 17.269531 L 24.425781 -2.757812 L 22.945312 -4.839844 L 0.046875 0.0664062 Z M 15.195312 8.328125 L 9.398438 0.183594 L 21.761719 -2.480469 Z M 15.195312 8.328125 "/></g></g></g><g fill="#000000" fill-opacity="1"><g transform="translate(339.250778, 130.711735)"><g><path d="M 7.476562 19.101562 L 27.496094 11.261719 L 26.6875 9.191406 L 9.964844 15.738281 L 22.0625 -2.621094 L 21.113281 -5.050781 L 1.089844 2.785156 L 1.902344 4.859375 L 18.957031 -1.816406 L 6.59375 16.851562 Z M 7.476562 19.101562 "/></g></g></g><g fill="#000000" fill-opacity="1"><g transform="translate(44.690382, 270.116165)"><g><path d="M 5.066406 5.109375 C 4.140625 3.457031 4.554688 1.628906 6.167969 -0.328125 L 4.320312 -1.464844 C 2.160156 1.121094 1.890625 3.824219 3.222656 6.207031 C 5.117188 9.582031 8.472656 10.445312 11.921875 8.511719 L 25.503906 0.898438 L 24.386719 -1.089844 L 10.734375 6.5625 C 8.449219 7.839844 6.292969 7.296875 5.066406 5.109375 Z M 5.066406 5.109375 "/></g></g></g><g fill="#000000" fill-opacity="1"><g transform="translate(63.820169, 300.560769)"><g><path d="M 23.925781 9.824219 C 28.496094 5.625 28.902344 -1.101562 24.679688 -5.695312 C 20.40625 -10.347656 13.609375 -10.460938 8.996094 -6.222656 C 4.421875 -2.019531 4.019531 4.703125 8.238281 9.296875 C 12.515625 13.953125 19.308594 14.0625 23.925781 9.824219 Z M 22.21875 8.175781 C 18.632812 11.472656 13.265625 11.601562 9.875 7.910156 C 6.445312 4.175781 7.070312 -1.238281 10.699219 -4.570312 C 14.289062 -7.867188 19.65625 -7.996094 23.046875 -4.304688 C 26.472656 -0.570312 25.832031 4.859375 22.21875 8.175781 Z M 22.21875 8.175781 "/></g></g></g><g fill="#000000" fill-opacity="1"><g transform="translate(96.142047, 331.813091)"><g><path d="M 4.464844 2.890625 L 9.882812 -5.476562 L 20.308594 1.269531 L 14.890625 9.640625 L 16.808594 10.882812 L 28.660156 -7.421875 L 26.742188 -8.664062 L 21.503906 -0.574219 L 11.078125 -7.324219 L 16.316406 -15.414062 L 14.398438 -16.65625 L 2.546875 1.648438 Z M 4.464844 2.890625 "/></g></g></g><g fill="#000000" fill-opacity="1"><g transform="translate(133.579383, 353.125442)"><g><path d="M 19.714844 6.632812 L 26.671875 -14.03125 L 24.53125 -14.753906 L 18.722656 2.511719 L 12.339844 -18.855469 L 9.832031 -19.699219 L 2.878906 0.96875 L 5.015625 1.6875 L 10.9375 -15.917969 L 17.394531 5.851562 Z M 19.714844 6.632812 "/></g></g></g><g fill="#000000" fill-opacity="1"><g transform="translate(175.50588, 364.269991)"><g/></g></g><g fill="#000000" fill-opacity="1"><g transform="translate(202.799826, 366.356461)"><g><path d="M 1.3125 -21.976562 L 3.027344 -0.238281 L 9.496094 -0.75 C 15.851562 -1.25 20.609375 -6.097656 20.097656 -12.566406 C 19.617188 -18.699219 14.554688 -23.023438 7.78125 -22.488281 Z M 5.132812 -2.554688 L 3.757812 -20.019531 L 7.835938 -20.339844 C 13.5 -20.789062 17.351562 -17.320312 17.742188 -12.324219 C 18.144531 -7.242188 14.738281 -3.3125 9.242188 -2.878906 Z M 5.132812 -2.554688 "/></g></g></g><g fill="#000000" fill-opacity="1"><g transform="translate(244.988206, 360.645496)"><g><path d="M 18.59375 -17.976562 C 16.578125 -23.851562 10.582031 -26.917969 4.679688 -24.894531 C -1.296875 -22.84375 -4.125 -16.660156 -2.09375 -10.734375 C -0.078125 -4.859375 5.921875 -1.796875 11.820312 -3.820312 C 17.800781 -5.871094 20.628906 -12.050781 18.59375 -17.976562 Z M 16.398438 -17.078125 C 17.980469 -12.46875 15.945312 -7.5 11.203125 -5.875 C 6.410156 -4.230469 1.699219 -6.972656 0.101562 -11.632812 C -1.480469 -16.246094 0.554688 -21.210938 5.296875 -22.835938 C 10.09375 -24.480469 14.808594 -21.714844 16.398438 -17.078125 Z M 16.398438 -17.078125 "/></g></g></g><g fill="#000000" fill-opacity="1"><g transform="translate(286.557987, 343.560613)"><g><path d="M -9.453125 -19.882812 L 2.535156 -1.667969 L 7.957031 -5.234375 C 13.28125 -8.742188 15.113281 -15.28125 11.546875 -20.699219 C 8.164062 -25.84375 1.644531 -27.1875 -4.03125 -23.449219 Z M 3.265625 -4.714844 L -6.363281 -19.347656 L -2.945312 -21.597656 C 1.800781 -24.722656 6.84375 -23.539062 9.601562 -19.351562 C 12.402344 -15.097656 11.3125 -10.011719 6.707031 -6.980469 Z M 3.265625 -4.714844 "/></g></g></g><g fill="#000000" fill-opacity="1"><g transform="translate(320.652465, 318.198419)"><g><path d="M -13.980469 -17.003906 L 2.054688 -2.234375 L 6.453125 -7.003906 C 10.773438 -11.695312 10.96875 -18.484375 6.195312 -22.878906 C 1.667969 -27.050781 -4.980469 -26.777344 -9.585938 -21.777344 Z M 2.027344 -5.363281 L -10.859375 -17.234375 L -8.082031 -20.242188 C -4.234375 -24.421875 0.945312 -24.496094 4.632812 -21.101562 C 8.378906 -17.648438 8.554688 -12.453125 4.820312 -8.398438 Z M 2.027344 -5.363281 "/></g></g></g><g fill="#000000" fill-opacity="1"><g transform="translate(347.399322, 285.388566)"><g><path d="M 4.585938 -7.644531 C 6.738281 -11.449219 5.523438 -15.179688 2.734375 -16.757812 C 1.476562 -17.46875 0.121094 -17.566406 -1.203125 -17.257812 C -2.933594 -16.863281 -4.644531 -15.589844 -6.304688 -13.84375 C -8.652344 -11.394531 -10.269531 -10.742188 -11.992188 -11.71875 C -13.976562 -12.84375 -14.144531 -15.433594 -12.992188 -17.46875 C -11.5625 -19.988281 -9.4375 -20.351562 -7.503906 -20.089844 L -7.488281 -22.324219 C -10.222656 -22.75 -13.046875 -21.722656 -14.828125 -18.574219 C -16.613281 -15.421875 -16.265625 -11.515625 -13.019531 -9.675781 C -10.378906 -8.179688 -7.703125 -9.003906 -4.550781 -12.367188 C -2.277344 -14.796875 -0.257812 -15.765625 1.730469 -14.640625 C 3.714844 -13.511719 3.980469 -10.929688 2.71875 -8.703125 C 1.25 -6.109375 -0.972656 -5.574219 -3.683594 -5.925781 L -3.761719 -3.699219 C -0.261719 -3.15625 2.703125 -4.324219 4.585938 -7.644531 Z M 4.585938 -7.644531 "/></g></g></g><g fill="#000000" fill-opacity="1"><g transform="translate(142.473639, 300.406811)"><g><path d="M 15.515625 -107.890625 L 45.0625 -107.890625 C 58.5 -107.890625 69.617188 -105.226562 78.421875 -99.90625 C 87.222656 -94.582031 93.640625 -87.71875 97.671875 -79.3125 C 101.703125 -70.90625 103.71875 -62.03125 103.71875 -52.6875 C 103.71875 -42.238281 101.28125 -33.007812 96.40625 -25 C 91.53125 -16.988281 85.015625 -10.816406 76.859375 -6.484375 C 68.703125 -2.160156 59.847656 0 50.296875 0 L 15.515625 0 Z M 47.453125 -14.03125 C 55.410156 -14.03125 62.523438 -15.597656 68.796875 -18.734375 C 75.066406 -21.867188 79.96875 -26.421875 83.5 -32.390625 C 87.03125 -38.359375 88.796875 -45.46875 88.796875 -53.71875 C 88.796875 -62.175781 86.953125 -69.4375 83.265625 -75.5 C 79.585938 -81.570312 74.6875 -86.175781 68.5625 -89.3125 C 62.445312 -92.445312 55.859375 -94.015625 48.796875 -94.015625 L 30 -94.015625 L 30 -14.03125 Z M 47.453125 -14.03125 "/></g></g></g><g fill="#000000" fill-opacity="1"><g transform="translate(141.339727, 171.156326)"><g><path d="M 15.3125 -106.453125 L 44.46875 -106.453125 C 57.71875 -106.453125 68.6875 -103.828125 77.375 -98.578125 C 86.0625 -93.328125 92.390625 -86.550781 96.359375 -78.25 C 100.335938 -69.957031 102.328125 -61.195312 102.328125 -51.96875 C 102.328125 -41.664062 99.921875 -32.5625 95.109375 -24.65625 C 90.304688 -16.757812 83.878906 -10.675781 75.828125 -6.40625 C 67.773438 -2.132812 59.039062 0 49.625 0 L 15.3125 0 Z M 46.828125 -13.84375 C 54.671875 -13.84375 61.6875 -15.382812 67.875 -18.46875 C 74.0625 -21.5625 78.894531 -26.050781 82.375 -31.9375 C 85.863281 -37.832031 87.609375 -44.851562 87.609375 -53 C 87.609375 -61.34375 85.789062 -68.507812 82.15625 -74.5 C 78.519531 -80.488281 73.679688 -85.023438 67.640625 -88.109375 C 61.609375 -91.203125 55.109375 -92.75 48.140625 -92.75 L 29.59375 -92.75 L 29.59375 -13.84375 Z M 46.828125 -13.84375 "/></g></g></g></svg>