<svg xmlns="http://www.w3.org/2000/svg" xmlns:xlink="http://www.w3.org/1999/xlink" width="500" zoomAndPan="magnify" viewBox="0 0 375 374.999991" height="500" preserveAspectRatio="xMidYMid meet" version="1.0"><defs><filter x="0%" y="0%" width="100%" height="100%" id="62b90d7d2a"><feColorMatrix values="0 0 0 0 1 0 0 0 0 1 0 0 0 0 1 0 0 0 1 0" color-interpolation-filters="sRGB"/></filter><g/><mask id="414e33bb6c"><g filter="url(#62b90d7d2a)"><rect x="-37.5" width="450" fill="#000000" y="-37.499999" height="449.999989" fill-opacity="0.43"/></g></mask><clipPath id="1d791969d0"><path d="M 0.28125 0.316406 L 148 0.316406 L 148 149 L 0.28125 149 Z M 0.28125 0.316406 " clip-rule="nonzero"/></clipPath><clipPath id="3205be9f52"><path d="M 126 52 L 224.53125 52 L 224.53125 150 L 126 150 Z M 126 52 " clip-rule="nonzero"/></clipPath><clipPath id="36d3fa9d91"><path d="M 45 126 L 172 126 L 172 250.816406 L 45 250.816406 Z M 45 126 " clip-rule="nonzero"/></clipPath><clipPath id="b8f4d96106"><path d="M 138 0.316406 L 188 0.316406 L 188 52 L 138 52 Z M 138 0.316406 " clip-rule="nonzero"/></clipPath><clipPath id="30270c9541"><rect x="0" width="226" y="0" height="251"/></clipPath></defs><g mask="url(#414e33bb6c)"><g transform="matrix(1, 0, 0, 1, 75, 80)"><g clip-path="url(#30270c9541)"><g clip-path="url(#1d791969d0)"><path fill="#d73f23" d="M 66.773438 98.515625 C 53.441406 94.664062 45.753906 80.722656 49.601562 67.375 C 53.449219 54.03125 67.375 46.332031 80.707031 50.1875 C 94.039062 54.039062 101.726562 67.980469 97.878906 81.328125 C 94.027344 94.671875 80.105469 102.367188 66.773438 98.515625 Z M 124.3125 100.628906 C 126.011719 97.347656 127.414062 93.855469 128.476562 90.167969 C 129.847656 85.414062 130.574219 80.628906 130.703125 75.902344 L 147.226562 69.65625 L 140.382812 41.976562 L 121.746094 43.644531 C 117.179688 36.476562 111.007812 30.3125 103.5625 25.742188 L 106.421875 8.292969 L 79.054688 0.386719 L 71.1875 17.355469 C 62.492188 17.746094 54.101562 20.140625 46.613281 24.199219 L 32.9375 12.988281 L 12.414062 32.757812 L 23.164062 48.074219 C 21.46875 51.355469 20.066406 54.847656 19 58.53125 C 17.632812 63.289062 16.90625 68.074219 16.773438 72.800781 L 0.253906 79.046875 L 7.09375 106.722656 L 25.730469 105.058594 C 30.300781 112.222656 36.472656 118.386719 43.914062 122.960938 L 41.058594 140.410156 L 68.421875 148.316406 L 76.292969 131.34375 C 84.988281 130.953125 93.378906 128.5625 100.867188 124.5 L 114.546875 135.714844 L 135.066406 115.945312 L 124.3125 100.628906 " fill-opacity="1" fill-rule="nonzero"/></g><g clip-path="url(#3205be9f52)"><path fill="#338b8c" d="M 179.902344 116.792969 C 171.046875 119.167969 161.945312 113.90625 159.570312 105.042969 C 157.199219 96.175781 162.453125 87.0625 171.308594 84.683594 C 180.164062 82.308594 189.265625 87.570312 191.640625 96.4375 C 194.015625 105.300781 188.757812 114.417969 179.902344 116.792969 Z M 213.183594 98.324219 C 213.023438 95.886719 212.625 93.429688 211.972656 90.984375 C 211.125 87.824219 209.902344 84.867188 208.367188 82.148438 L 215.585938 72.972656 L 202.277344 59.644531 L 192.296875 66.960938 C 187.269531 64.464844 181.675781 63.085938 175.90625 63.042969 L 171.574219 52.191406 L 153.394531 57.070312 L 154.730469 69.363281 C 149.941406 72.554688 146.007812 76.777344 143.15625 81.632812 L 131.597656 79.960938 L 126.722656 98.164062 L 138.03125 103.152344 C 138.1875 105.589844 138.585938 108.046875 139.242188 110.496094 C 140.085938 113.652344 141.308594 116.609375 142.847656 119.328125 L 135.628906 128.507812 L 148.9375 141.832031 L 158.914062 134.519531 C 163.941406 137.011719 169.535156 138.390625 175.304688 138.433594 L 179.640625 149.285156 L 197.816406 144.40625 L 196.484375 132.113281 C 201.273438 128.921875 205.203125 124.703125 208.054688 119.847656 L 219.617188 121.515625 L 224.488281 103.3125 L 213.183594 98.324219 " fill-opacity="1" fill-rule="nonzero"/></g><g clip-path="url(#36d3fa9d91)"><path fill="#e0a11b" d="M 94.054688 204.371094 C 85.5 196.332031 85.070312 182.871094 93.101562 174.308594 C 101.132812 165.742188 114.578125 165.316406 123.132812 173.355469 C 131.6875 181.394531 132.113281 194.855469 124.082031 203.421875 C 116.054688 211.984375 102.609375 212.410156 94.054688 204.371094 Z M 136.5625 228.144531 C 139.105469 226.328125 141.503906 224.238281 143.722656 221.871094 C 146.582031 218.824219 148.96875 215.5 150.886719 211.988281 L 165.726562 213.65625 L 171.222656 190.179688 L 156.550781 184.25 C 155.863281 177.09375 153.589844 170.074219 149.742188 163.761719 L 158.605469 151.722656 L 141.042969 135.222656 L 128.59375 144.96875 C 121.894531 141.910156 114.65625 140.476562 107.457031 140.648438 L 101.472656 126.933594 L 78.414062 133.910156 L 80.621094 149.585938 C 78.082031 151.402344 75.679688 153.492188 73.460938 155.855469 C 70.605469 158.90625 68.214844 162.230469 66.300781 165.738281 L 51.457031 164.074219 L 45.964844 187.550781 L 60.636719 193.480469 C 61.320312 200.632812 63.59375 207.65625 67.441406 213.964844 L 58.578125 226.003906 L 76.140625 242.507812 L 88.59375 232.757812 C 95.289062 235.820312 102.527344 237.25 109.730469 237.078125 L 115.714844 250.792969 L 138.769531 243.820312 L 136.5625 228.144531 " fill-opacity="1" fill-rule="nonzero"/></g><g clip-path="url(#b8f4d96106)"><path fill="#4a3529" d="M 163.226562 35.039062 C 158.355469 35.039062 154.40625 31.085938 154.40625 26.207031 C 154.40625 21.328125 158.355469 17.375 163.226562 17.375 C 168.097656 17.375 172.050781 21.328125 172.050781 26.207031 C 172.050781 31.085938 168.097656 35.039062 163.226562 35.039062 Z M 182.847656 30.140625 C 183.101562 28.871094 183.234375 27.554688 183.234375 26.207031 C 183.234375 24.46875 183.011719 22.78125 182.597656 21.175781 L 187.566406 17.457031 L 182.5625 8.785156 L 176.4375 11.164062 C 174.199219 9.195312 171.519531 7.714844 168.5625 6.898438 L 167.828125 0.734375 L 157.824219 0.734375 L 156.820312 7.226562 C 153.925781 8.203125 151.324219 9.832031 149.195312 11.929688 L 143.488281 9.480469 L 138.488281 18.152344 L 143.605469 22.269531 C 143.355469 23.542969 143.21875 24.859375 143.21875 26.207031 C 143.21875 27.941406 143.441406 29.628906 143.855469 31.238281 L 138.890625 34.953125 L 143.890625 43.628906 L 150.015625 41.246094 C 152.253906 43.222656 154.9375 44.699219 157.894531 45.515625 L 158.625 51.683594 L 168.628906 51.683594 L 169.632812 45.1875 C 172.527344 44.207031 175.125 42.582031 177.257812 40.484375 L 182.964844 42.933594 L 187.964844 34.261719 L 182.847656 30.140625 " fill-opacity="1" fill-rule="nonzero"/></g></g></g></g><g fill="#000000" fill-opacity="1"><g transform="translate(40.200489, 152.584921)"><g><path d="M -18.972656 -10.546875 L 1.078125 -2.792969 L 3.386719 -8.757812 C 5.65625 -14.621094 3.382812 -20.917969 -2.585938 -23.226562 C -8.242188 -25.417969 -14.246094 -22.765625 -16.664062 -16.515625 Z M -0.078125 -5.652344 L -16.1875 -11.886719 L -14.730469 -15.648438 C -12.710938 -20.875 -7.984375 -22.816406 -3.375 -21.03125 C 1.3125 -19.21875 3.347656 -14.515625 1.386719 -9.445312 Z M -0.078125 -5.652344 "/></g></g></g><g fill="#000000" fill-opacity="1"><g transform="translate(55.680498, 118.208932)"><g><path d="M -6.703125 -24.542969 L -8.425781 -25.726562 L -16.035156 -14.628906 L 1.691406 -2.46875 L 9.367188 -13.652344 L 7.644531 -14.832031 L 1.246094 -5.503906 L -5.183594 -9.917969 L 0.609375 -18.363281 L -1.109375 -19.542969 L -6.90625 -11.097656 L -13.042969 -15.308594 Z M -6.703125 -24.542969 "/></g></g></g><g fill="#000000" fill-opacity="1"><g transform="translate(76.157155, 91.311085)"><g><path d="M -2.042969 -9.953125 L 1.183594 -12.933594 L 11.75 -10.832031 L 13.765625 -12.695312 L 2.722656 -14.871094 C 4.804688 -17.351562 5.386719 -20.691406 2.890625 -23.394531 C 0.621094 -25.859375 -3.046875 -26.433594 -6.902344 -22.878906 L -12.375 -17.835938 L 2.199219 -2.027344 L 3.855469 -3.554688 Z M -3.441406 -11.46875 L -9.285156 -17.808594 L -5.570312 -21.230469 C -2.5625 -24.003906 -0.160156 -23.34375 1.273438 -21.789062 C 2.742188 -20.195312 3.101562 -17.5 0.234375 -14.855469 Z M -3.441406 -11.46875 "/></g></g></g><g fill="#000000" fill-opacity="1"><g transform="translate(103.341067, 68.7384)"><g><path d="M 4.621094 -25.019531 L 3.585938 -26.832031 L -8.089844 -20.144531 L 2.597656 -1.488281 L 14.367188 -8.230469 L 13.328125 -10.039062 L 3.511719 -4.417969 L -0.363281 -11.183594 L 8.523438 -16.273438 L 7.488281 -18.085938 L -1.398438 -12.996094 L -5.097656 -19.453125 Z M 4.621094 -25.019531 "/></g></g></g><g fill="#000000" fill-opacity="1"><g transform="translate(133.509411, 53.424566)"><g><path d="M -1.324219 -22.089844 L -3.476562 -21.425781 L 2.859375 -0.882812 L 5.011719 -1.546875 L 1.960938 -11.4375 L 2.117188 -11.484375 L 14.796875 -4.5625 L 17.84375 -5.503906 L 3.992188 -12.957031 L 11.03125 -25.902344 L 8.015625 -24.972656 L 1.605469 -13.050781 L 1.476562 -13.011719 Z M -1.324219 -22.089844 "/></g></g></g><g fill="#000000" fill-opacity="1"><g transform="translate(166.953224, 45.210169)"><g/></g></g><g fill="#000000" fill-opacity="1"><g transform="translate(190.499842, 43.628683)"><g><path d="M 8.746094 0.867188 C 13.046875 1.183594 15.859375 -1.472656 16.089844 -4.621094 C 16.195312 -6.042969 15.710938 -7.292969 14.878906 -8.34375 C 13.796875 -9.71875 11.941406 -10.707031 9.683594 -11.453125 C 6.515625 -12.515625 5.25 -13.679688 5.394531 -15.625 C 5.5625 -17.871094 7.800781 -19.109375 10.101562 -18.941406 C 12.949219 -18.730469 14.167969 -16.988281 14.75 -15.15625 L 16.746094 -16.082031 C 15.972656 -18.699219 13.871094 -20.78125 10.3125 -21.042969 C 6.75 -21.308594 3.414062 -19.351562 3.140625 -15.683594 C 2.921875 -12.695312 4.78125 -10.660156 9.109375 -9.265625 C 12.230469 -8.265625 13.945312 -6.871094 13.777344 -4.625 C 13.613281 -2.378906 11.421875 -1.054688 8.902344 -1.242188 C 5.972656 -1.457031 4.558594 -3.214844 3.730469 -5.78125 L 1.710938 -4.910156 C 2.703125 -1.5625 4.996094 0.589844 8.746094 0.867188 Z M 8.746094 0.867188 "/></g></g></g><g fill="#000000" fill-opacity="1"><g transform="translate(223.138239, 47.700945)"><g><path d="M 12.976562 -16.363281 L 7.449219 2.21875 L 9.632812 2.867188 L 15.164062 -15.710938 L 22.03125 -13.667969 L 22.632812 -15.695312 L 6.6875 -20.441406 L 6.082031 -18.414062 Z M 12.976562 -16.363281 "/></g></g></g><g fill="#000000" fill-opacity="1"><g transform="translate(254.642483, 58.838579)"><g><path d="M 23.8125 -8.964844 L 24.828125 -10.789062 L 13.070312 -17.332031 L 2.613281 1.457031 L 14.46875 8.050781 L 15.480469 6.230469 L 5.597656 0.726562 L 9.390625 -6.085938 L 18.339844 -1.105469 L 19.355469 -2.929688 L 10.40625 -7.910156 L 14.023438 -14.410156 Z M 23.8125 -8.964844 "/></g></g></g><g fill="#000000" fill-opacity="1"><g transform="translate(283.340683, 76.804419)"><g><path d="M 17.863281 3.03125 L 19.246094 1.46875 L 11.667969 -5.253906 L 16.785156 -11.027344 L 25.066406 -3.683594 L 26.46875 -5.265625 L 16.503906 -14.101562 L 2.238281 1.984375 L 3.925781 3.480469 L 10.28125 -3.691406 Z M 17.863281 3.03125 "/></g></g></g><g fill="#000000" fill-opacity="1"><g transform="translate(306.978805, 99.837751)"><g><path d="M 1.386719 1.945312 L 7.230469 0.683594 L 14.027344 10.238281 L 10.90625 15.324219 L 12.292969 17.269531 L 24.425781 -2.757812 L 22.945312 -4.839844 L 0.046875 0.0664062 Z M 15.195312 8.328125 L 9.398438 0.183594 L 21.761719 -2.480469 Z M 15.195312 8.328125 "/></g></g></g><g fill="#000000" fill-opacity="1"><g transform="translate(326.79823, 130.711735)"><g><path d="M 7.476562 19.101562 L 27.496094 11.261719 L 26.6875 9.191406 L 9.964844 15.738281 L 22.0625 -2.621094 L 21.113281 -5.050781 L 1.089844 2.785156 L 1.902344 4.859375 L 18.957031 -1.816406 L 6.59375 16.851562 Z M 7.476562 19.101562 "/></g></g></g><g fill="#000000" fill-opacity="1"><g transform="translate(32.237827, 270.116165)"><g><path d="M 5.066406 5.109375 C 4.140625 3.457031 4.554688 1.628906 6.167969 -0.328125 L 4.320312 -1.464844 C 2.160156 1.121094 1.890625 3.824219 3.222656 6.207031 C 5.117188 9.582031 8.472656 10.445312 11.921875 8.511719 L 25.503906 0.898438 L 24.386719 -1.089844 L 10.734375 6.5625 C 8.449219 7.839844 6.292969 7.296875 5.066406 5.109375 Z M 5.066406 5.109375 "/></g></g></g><g fill="#000000" fill-opacity="1"><g transform="translate(51.367614, 300.560769)"><g><path d="M 23.925781 9.824219 C 28.496094 5.625 28.902344 -1.101562 24.679688 -5.695312 C 20.40625 -10.347656 13.609375 -10.460938 8.996094 -6.222656 C 4.421875 -2.019531 4.019531 4.703125 8.238281 9.296875 C 12.515625 13.953125 19.308594 14.0625 23.925781 9.824219 Z M 22.21875 8.175781 C 18.632812 11.472656 13.265625 11.601562 9.875 7.910156 C 6.445312 4.175781 7.070312 -1.238281 10.699219 -4.570312 C 14.289062 -7.867188 19.65625 -7.996094 23.046875 -4.304688 C 26.472656 -0.570312 25.832031 4.859375 22.21875 8.175781 Z M 22.21875 8.175781 "/></g></g></g><g fill="#000000" fill-opacity="1"><g transform="translate(83.689492, 331.813091)"><g><path d="M 4.464844 2.890625 L 9.882812 -5.476562 L 20.308594 1.269531 L 14.890625 9.640625 L 16.808594 10.882812 L 28.660156 -7.421875 L 26.742188 -8.664062 L 21.503906 -0.574219 L 11.078125 -7.324219 L 16.316406 -15.414062 L 14.398438 -16.65625 L 2.546875 1.648438 Z M 4.464844 2.890625 "/></g></g></g><g fill="#000000" fill-opacity="1"><g transform="translate(121.126835, 353.125442)"><g><path d="M 19.714844 6.632812 L 26.671875 -14.03125 L 24.53125 -14.753906 L 18.722656 2.511719 L 12.339844 -18.855469 L 9.832031 -19.699219 L 2.878906 0.96875 L 5.015625 1.6875 L 10.9375 -15.917969 L 17.394531 5.851562 Z M 19.714844 6.632812 "/></g></g></g><g fill="#000000" fill-opacity="1"><g transform="translate(163.053332, 364.269991)"><g/></g></g><g fill="#000000" fill-opacity="1"><g transform="translate(190.347278, 366.356461)"><g><path d="M 1.3125 -21.976562 L 3.027344 -0.238281 L 9.496094 -0.75 C 15.851562 -1.25 20.609375 -6.097656 20.097656 -12.566406 C 19.617188 -18.699219 14.554688 -23.023438 7.78125 -22.488281 Z M 5.132812 -2.554688 L 3.757812 -20.019531 L 7.835938 -20.339844 C 13.5 -20.789062 17.351562 -17.320312 17.742188 -12.324219 C 18.144531 -7.242188 14.738281 -3.3125 9.242188 -2.878906 Z M 5.132812 -2.554688 "/></g></g></g><g fill="#000000" fill-opacity="1"><g transform="translate(232.535658, 360.645496)"><g><path d="M 18.59375 -17.976562 C 16.578125 -23.851562 10.582031 -26.917969 4.679688 -24.894531 C -1.296875 -22.84375 -4.125 -16.660156 -2.09375 -10.734375 C -0.078125 -4.859375 5.921875 -1.796875 11.820312 -3.820312 C 17.800781 -5.871094 20.628906 -12.050781 18.59375 -17.976562 Z M 16.398438 -17.078125 C 17.980469 -12.46875 15.945312 -7.5 11.203125 -5.875 C 6.410156 -4.230469 1.699219 -6.972656 0.101562 -11.632812 C -1.480469 -16.246094 0.554688 -21.210938 5.296875 -22.835938 C 10.09375 -24.480469 14.808594 -21.714844 16.398438 -17.078125 Z M 16.398438 -17.078125 "/></g></g></g><g fill="#000000" fill-opacity="1"><g transform="translate(274.105439, 343.560613)"><g><path d="M -9.453125 -19.882812 L 2.535156 -1.667969 L 7.957031 -5.234375 C 13.28125 -8.742188 15.113281 -15.28125 11.546875 -20.699219 C 8.164062 -25.84375 1.644531 -27.1875 -4.03125 -23.449219 Z M 3.265625 -4.714844 L -6.363281 -19.347656 L -2.945312 -21.597656 C 1.800781 -24.722656 6.84375 -23.539062 9.601562 -19.351562 C 12.402344 -15.097656 11.3125 -10.011719 6.707031 -6.980469 Z M 3.265625 -4.714844 "/></g></g></g><g fill="#000000" fill-opacity="1"><g transform="translate(308.199888, 318.198419)"><g><path d="M -13.980469 -17.003906 L 2.054688 -2.234375 L 6.453125 -7.003906 C 10.773438 -11.695312 10.96875 -18.484375 6.195312 -22.878906 C 1.667969 -27.050781 -4.980469 -26.777344 -9.585938 -21.777344 Z M 2.027344 -5.363281 L -10.859375 -17.234375 L -8.082031 -20.242188 C -4.234375 -24.421875 0.945312 -24.496094 4.632812 -21.101562 C 8.378906 -17.648438 8.554688 -12.453125 4.820312 -8.398438 Z M 2.027344 -5.363281 "/></g></g></g><g fill="#000000" fill-opacity="1"><g transform="translate(334.946774, 285.388566)"><g><path d="M 4.585938 -7.644531 C 6.738281 -11.449219 5.523438 -15.179688 2.734375 -16.757812 C 1.476562 -17.46875 0.121094 -17.566406 -1.203125 -17.257812 C -2.933594 -16.863281 -4.644531 -15.589844 -6.304688 -13.84375 C -8.652344 -11.394531 -10.269531 -10.742188 -11.992188 -11.71875 C -13.976562 -12.84375 -14.144531 -15.433594 -12.992188 -17.46875 C -11.5625 -19.988281 -9.4375 -20.351562 -7.503906 -20.089844 L -7.488281 -22.324219 C -10.222656 -22.75 -13.046875 -21.722656 -14.828125 -18.574219 C -16.613281 -15.421875 -16.265625 -11.515625 -13.019531 -9.675781 C -10.378906 -8.179688 -7.703125 -9.003906 -4.550781 -12.367188 C -2.277344 -14.796875 -0.257812 -15.765625 1.730469 -14.640625 C 3.714844 -13.511719 3.980469 -10.929688 2.71875 -8.703125 C 1.25 -6.109375 -0.972656 -5.574219 -3.683594 -5.925781 L -3.761719 -3.699219 C -0.261719 -3.15625 2.703125 -4.324219 4.585938 -7.644531 Z M 4.585938 -7.644531 "/></g></g></g><g fill="#000000" fill-opacity="1"><g transform="translate(136.87863, 300.406811)"><g><path d="M 15.515625 -107.890625 L 45.0625 -107.890625 C 58.5 -107.890625 69.617188 -105.226562 78.421875 -99.90625 C 87.222656 -94.582031 93.640625 -87.71875 97.671875 -79.3125 C 101.703125 -70.90625 103.71875 -62.03125 103.71875 -52.6875 C 103.71875 -42.238281 101.28125 -33.007812 96.40625 -25 C 91.53125 -16.988281 85.015625 -10.816406 76.859375 -6.484375 C 68.703125 -2.160156 59.847656 0 50.296875 0 L 15.515625 0 Z M 47.453125 -14.03125 C 55.410156 -14.03125 62.523438 -15.597656 68.796875 -18.734375 C 75.066406 -21.867188 79.96875 -26.421875 83.5 -32.390625 C 87.03125 -38.359375 88.796875 -45.46875 88.796875 -53.71875 C 88.796875 -62.175781 86.953125 -69.4375 83.265625 -75.5 C 79.585938 -81.570312 74.6875 -86.175781 68.5625 -89.3125 C 62.445312 -92.445312 55.859375 -94.015625 48.796875 -94.015625 L 30 -94.015625 L 30 -14.03125 Z M 47.453125 -14.03125 "/></g></g></g><g fill="#000000" fill-opacity="1"><g transform="translate(138.066076, 174.005857)"><g><path d="M 15.1875 -105.5625 L 44.09375 -105.5625 C 57.238281 -105.5625 68.117188 -102.957031 76.734375 -97.75 C 85.347656 -92.550781 91.625 -85.835938 95.5625 -77.609375 C 99.507812 -69.378906 101.484375 -60.691406 101.484375 -51.546875 C 101.484375 -41.328125 99.097656 -32.296875 94.328125 -24.453125 C 89.554688 -16.617188 83.175781 -10.582031 75.1875 -6.34375 C 67.207031 -2.113281 58.546875 0 49.203125 0 L 15.1875 0 Z M 46.4375 -13.71875 C 54.21875 -13.71875 61.175781 -15.25 67.3125 -18.3125 C 73.445312 -21.382812 78.238281 -25.84375 81.6875 -31.6875 C 85.144531 -37.53125 86.875 -44.488281 86.875 -52.5625 C 86.875 -60.84375 85.070312 -67.953125 81.46875 -73.890625 C 77.875 -79.828125 73.082031 -84.328125 67.09375 -87.390625 C 61.101562 -90.453125 54.65625 -91.984375 47.75 -91.984375 L 29.34375 -91.984375 L 29.34375 -13.71875 Z M 46.4375 -13.71875 "/></g></g></g></svg>