<svg xmlns="http://www.w3.org/2000/svg" xmlns:xlink="http://www.w3.org/1999/xlink" width="500" zoomAndPan="magnify" viewBox="0 0 375 374.999991" height="500" preserveAspectRatio="xMidYMid meet" version="1.0"><defs><filter x="0%" y="0%" width="100%" height="100%" id="9d0fb348e8"><feColorMatrix values="0 0 0 0 1 0 0 0 0 1 0 0 0 0 1 0 0 0 1 0" color-interpolation-filters="sRGB"/></filter><g/><mask id="87ec7c60f6"><g filter="url(#9d0fb348e8)"><rect x="-37.5" width="450" fill="#000000" y="-37.499999" height="449.999989" fill-opacity="0.26"/></g></mask><clipPath id="c1725faa27"><path d="M 1.023438 0.707031 L 69 0.707031 L 69 69 L 1.023438 69 Z M 1.023438 0.707031 " clip-rule="nonzero"/></clipPath><clipPath id="c5a13af8f7"><path d="M 58 24 L 103.773438 24 L 103.773438 69 L 58 69 Z M 58 24 " clip-rule="nonzero"/></clipPath><clipPath id="4d5e409cbb"><path d="M 21 58 L 80 58 L 80 115.457031 L 21 115.457031 Z M 21 58 " clip-rule="nonzero"/></clipPath><clipPath id="b922a51a09"><path d="M 64 0.707031 L 88 0.707031 L 88 25 L 64 25 Z M 64 0.707031 " clip-rule="nonzero"/></clipPath><clipPath id="3652af1160"><rect x="0" width="105" y="0" height="117"/></clipPath></defs><g mask="url(#87ec7c60f6)"><g transform="matrix(1, 0, 0, 1, 135, 131)"><g clip-path="url(#3652af1160)"><g clip-path="url(#c1725faa27)"><path fill="#d73f23" d="M 31.492188 45.6875 C 25.382812 43.925781 21.859375 37.535156 23.625 31.421875 C 25.386719 25.308594 31.765625 21.78125 37.875 23.546875 C 43.984375 25.3125 47.507812 31.699219 45.742188 37.8125 C 43.980469 43.925781 37.597656 47.453125 31.492188 45.6875 Z M 57.855469 46.65625 C 58.632812 45.152344 59.277344 43.554688 59.765625 41.863281 C 60.390625 39.6875 60.722656 37.492188 60.785156 35.328125 L 68.355469 32.464844 L 65.21875 19.785156 L 56.679688 20.546875 C 54.585938 17.265625 51.761719 14.441406 48.347656 12.347656 L 49.660156 4.351562 L 37.121094 0.730469 L 33.515625 8.503906 C 29.53125 8.683594 25.683594 9.78125 22.253906 11.640625 L 15.988281 6.503906 L 6.582031 15.5625 L 11.511719 22.578125 C 10.734375 24.082031 10.089844 25.679688 9.601562 27.371094 C 8.976562 29.546875 8.644531 31.742188 8.582031 33.90625 L 1.011719 36.769531 L 4.148438 49.449219 L 12.6875 48.6875 C 14.78125 51.96875 17.609375 54.792969 21.019531 56.886719 L 19.707031 64.882812 L 32.246094 68.503906 L 35.851562 60.726562 C 39.835938 60.550781 43.683594 59.453125 47.113281 57.59375 L 53.378906 62.730469 L 62.785156 53.671875 L 57.855469 46.65625 " fill-opacity="1" fill-rule="nonzero"/></g><g clip-path="url(#c5a13af8f7)"><path fill="#338b8c" d="M 83.328125 54.0625 C 79.269531 55.152344 75.097656 52.742188 74.011719 48.679688 C 72.921875 44.617188 75.332031 40.441406 79.390625 39.351562 C 83.445312 38.261719 87.617188 40.675781 88.707031 44.734375 C 89.792969 48.796875 87.386719 52.972656 83.328125 54.0625 Z M 98.574219 45.601562 C 98.503906 44.484375 98.320312 43.359375 98.019531 42.238281 C 97.632812 40.789062 97.074219 39.4375 96.367188 38.191406 L 99.675781 33.984375 L 93.578125 27.878906 L 89.007812 31.230469 C 86.703125 30.089844 84.140625 29.457031 81.496094 29.4375 L 79.511719 24.464844 L 71.179688 26.699219 L 71.792969 32.332031 C 69.597656 33.792969 67.796875 35.730469 66.488281 37.953125 L 61.191406 37.1875 L 58.960938 45.527344 L 64.140625 47.8125 C 64.214844 48.929688 64.394531 50.054688 64.695312 51.175781 C 65.082031 52.625 65.644531 53.976562 66.347656 55.222656 L 63.039062 59.429688 L 69.136719 65.535156 L 73.710938 62.183594 C 76.011719 63.324219 78.578125 63.957031 81.21875 63.976562 L 83.207031 68.949219 L 91.535156 66.714844 L 90.921875 61.082031 C 93.117188 59.621094 94.917969 57.6875 96.226562 55.460938 L 101.523438 56.226562 L 103.753906 47.886719 L 98.574219 45.601562 " fill-opacity="1" fill-rule="nonzero"/></g><g clip-path="url(#4d5e409cbb)"><path fill="#e0a11b" d="M 43.992188 94.1875 C 40.070312 90.503906 39.875 84.335938 43.554688 80.414062 C 47.234375 76.488281 53.394531 76.292969 57.316406 79.976562 C 61.234375 83.660156 61.429688 89.828125 57.75 93.75 C 54.070312 97.675781 47.910156 97.871094 43.992188 94.1875 Z M 63.46875 105.078125 C 64.632812 104.246094 65.734375 103.289062 66.75 102.203125 C 68.058594 100.808594 69.152344 99.285156 70.03125 97.675781 L 76.832031 98.441406 L 79.347656 87.683594 L 72.625 84.964844 C 72.3125 81.6875 71.269531 78.472656 69.507812 75.578125 L 73.570312 70.066406 L 65.519531 62.503906 L 59.816406 66.972656 C 56.746094 65.570312 53.429688 64.914062 50.132812 64.992188 L 47.390625 58.707031 L 36.824219 61.902344 L 37.835938 69.085938 C 36.671875 69.917969 35.574219 70.875 34.554688 71.957031 C 33.246094 73.355469 32.152344 74.878906 31.273438 76.488281 L 24.472656 75.722656 L 21.957031 86.480469 L 28.679688 89.195312 C 28.992188 92.472656 30.035156 95.691406 31.796875 98.582031 L 27.738281 104.097656 L 35.785156 111.65625 L 41.488281 107.191406 C 44.558594 108.59375 47.875 109.25 51.171875 109.171875 L 53.917969 115.457031 L 64.480469 112.257812 L 63.46875 105.078125 " fill-opacity="1" fill-rule="nonzero"/></g><g clip-path="url(#b922a51a09)"><path fill="#4a3529" d="M 75.6875 16.605469 C 73.453125 16.605469 71.644531 14.796875 71.644531 12.558594 C 71.644531 10.324219 73.453125 8.511719 75.6875 8.511719 C 77.917969 8.511719 79.726562 10.324219 79.726562 12.558594 C 79.726562 14.796875 77.917969 16.605469 75.6875 16.605469 Z M 84.675781 14.363281 C 84.792969 13.78125 84.855469 13.175781 84.855469 12.558594 C 84.855469 11.765625 84.75 10.992188 84.5625 10.253906 L 86.835938 8.550781 L 84.546875 4.578125 L 81.738281 5.667969 C 80.714844 4.765625 79.484375 4.085938 78.128906 3.714844 L 77.792969 0.890625 L 73.210938 0.890625 L 72.75 3.863281 C 71.425781 4.3125 70.234375 5.058594 69.257812 6.019531 L 66.644531 4.894531 L 64.351562 8.871094 L 66.695312 10.757812 C 66.582031 11.339844 66.519531 11.941406 66.519531 12.558594 C 66.519531 13.355469 66.621094 14.128906 66.808594 14.863281 L 64.535156 16.566406 L 66.824219 20.542969 L 69.632812 19.449219 C 70.660156 20.355469 71.886719 21.03125 73.242188 21.40625 L 73.578125 24.230469 L 78.160156 24.230469 L 78.621094 21.257812 C 79.949219 20.808594 81.136719 20.0625 82.113281 19.101562 L 84.730469 20.222656 L 87.019531 16.25 L 84.675781 14.363281 " fill-opacity="1" fill-rule="nonzero"/></g></g></g></g><g fill="#000000" fill-opacity="1"><g transform="translate(116.429071, 165.329895)"><g><path d="M -9.152344 -5.089844 L 0.519531 -1.347656 L 1.636719 -4.226562 C 2.730469 -7.054688 1.632812 -10.09375 -1.246094 -11.207031 C -3.976562 -12.265625 -6.875 -10.984375 -8.039062 -7.96875 Z M -0.0390625 -2.726562 L -7.808594 -5.734375 L -7.109375 -7.550781 C -6.132812 -10.070312 -3.851562 -11.007812 -1.628906 -10.148438 C 0.632812 -9.273438 1.617188 -7.003906 0.667969 -4.558594 Z M -0.0390625 -2.726562 "/></g></g></g><g fill="#000000" fill-opacity="1"><g transform="translate(123.898058, 148.743746)"><g><path d="M -3.234375 -11.84375 L -4.066406 -12.414062 L -7.738281 -7.058594 L 0.816406 -1.191406 L 4.519531 -6.585938 L 3.6875 -7.15625 L 0.601562 -2.65625 L -2.5 -4.785156 L 0.292969 -8.859375 L -0.535156 -9.429688 L -3.332031 -5.355469 L -6.292969 -7.386719 Z M -3.234375 -11.84375 "/></g></g></g><g fill="#000000" fill-opacity="1"><g transform="translate(133.777895, 135.765744)"><g><path d="M -0.988281 -4.804688 L 0.570312 -6.238281 L 5.667969 -5.226562 L 6.644531 -6.125 L 1.3125 -7.175781 C 2.316406 -8.371094 2.597656 -9.984375 1.394531 -11.289062 C 0.300781 -12.476562 -1.46875 -12.753906 -3.332031 -11.039062 L -5.96875 -8.605469 L 1.0625 -0.980469 L 1.859375 -1.714844 Z M -1.660156 -5.535156 L -4.480469 -8.589844 L -2.6875 -10.246094 C -1.238281 -11.582031 -0.078125 -11.261719 0.613281 -10.511719 C 1.324219 -9.742188 1.496094 -8.441406 0.113281 -7.167969 Z M -1.660156 -5.535156 "/></g></g></g><g fill="#000000" fill-opacity="1"><g transform="translate(146.893934, 124.874581)"><g><path d="M 2.230469 -12.070312 L 1.730469 -12.945312 L -3.902344 -9.71875 L 1.253906 -0.71875 L 6.933594 -3.972656 L 6.429688 -4.84375 L 1.695312 -2.132812 L -0.175781 -5.394531 L 4.113281 -7.851562 L 3.613281 -8.726562 L -0.675781 -6.269531 L -2.460938 -9.386719 Z M 2.230469 -12.070312 "/></g></g></g><g fill="#000000" fill-opacity="1"><g transform="translate(161.449948, 117.485772)"><g><path d="M -0.640625 -10.660156 L -1.675781 -10.339844 L 1.378906 -0.425781 L 2.417969 -0.746094 L 0.945312 -5.519531 L 1.023438 -5.542969 L 7.140625 -2.203125 L 8.609375 -2.65625 L 1.925781 -6.25 L 5.324219 -12.496094 L 3.867188 -12.046875 L 0.773438 -6.296875 L 0.710938 -6.277344 Z M -0.640625 -10.660156 "/></g></g></g><g fill="#000000" fill-opacity="1"><g transform="translate(177.58633, 113.522394)"><g/></g></g><g fill="#000000" fill-opacity="1"><g transform="translate(188.947392, 112.759334)"><g><path d="M 4.21875 0.417969 C 6.292969 0.570312 7.652344 -0.710938 7.761719 -2.230469 C 7.8125 -2.917969 7.578125 -3.519531 7.179688 -4.027344 C 6.65625 -4.6875 5.761719 -5.167969 4.671875 -5.527344 C 3.144531 -6.039062 2.535156 -6.601562 2.601562 -7.539062 C 2.683594 -8.621094 3.761719 -9.21875 4.875 -9.136719 C 6.246094 -9.035156 6.835938 -8.195312 7.117188 -7.3125 L 8.078125 -7.757812 C 7.707031 -9.023438 6.691406 -10.027344 4.976562 -10.152344 C 3.257812 -10.28125 1.648438 -9.335938 1.515625 -7.566406 C 1.410156 -6.125 2.304688 -5.144531 4.394531 -4.472656 C 5.902344 -3.988281 6.726562 -3.316406 6.648438 -2.230469 C 6.566406 -1.148438 5.511719 -0.507812 4.296875 -0.597656 C 2.882812 -0.703125 2.199219 -1.550781 1.800781 -2.789062 L 0.824219 -2.371094 C 1.304688 -0.753906 2.410156 0.285156 4.21875 0.417969 Z M 4.21875 0.417969 "/></g></g></g><g fill="#000000" fill-opacity="1"><g transform="translate(204.69518, 114.72417)"><g><path d="M 6.261719 -7.894531 L 3.59375 1.070312 L 4.648438 1.382812 L 7.316406 -7.582031 L 10.628906 -6.59375 L 10.921875 -7.574219 L 3.226562 -9.863281 L 2.933594 -8.886719 Z M 6.261719 -7.894531 "/></g></g></g><g fill="#000000" fill-opacity="1"><g transform="translate(219.895725, 120.097996)"><g><path d="M 11.488281 -4.324219 L 11.980469 -5.203125 L 6.308594 -8.363281 L 1.261719 0.703125 L 6.980469 3.886719 L 7.46875 3.003906 L 2.699219 0.351562 L 4.53125 -2.9375 L 8.847656 -0.535156 L 9.339844 -1.414062 L 5.019531 -3.816406 L 6.765625 -6.953125 Z M 11.488281 -4.324219 "/></g></g></g><g fill="#000000" fill-opacity="1"><g transform="translate(233.742406, 128.766371)"><g><path d="M 8.617188 1.460938 L 9.285156 0.707031 L 5.628906 -2.535156 L 8.097656 -5.320312 L 12.09375 -1.777344 L 12.769531 -2.542969 L 7.960938 -6.804688 L 1.082031 0.957031 L 1.894531 1.679688 L 4.960938 -1.78125 Z M 8.617188 1.460938 "/></g></g></g><g fill="#000000" fill-opacity="1"><g transform="translate(245.147633, 139.87979)"><g><path d="M 0.667969 0.9375 L 3.488281 0.332031 L 6.769531 4.941406 L 5.261719 7.394531 L 5.929688 8.332031 L 11.785156 -1.332031 L 11.070312 -2.335938 L 0.0234375 0.03125 Z M 7.332031 4.019531 L 4.535156 0.0898438 L 10.5 -1.195312 Z M 7.332031 4.019531 "/></g></g></g><g fill="#000000" fill-opacity="1"><g transform="translate(254.710367, 154.77626)"><g><path d="M 3.605469 9.214844 L 13.265625 5.433594 L 12.875 4.433594 L 4.808594 7.59375 L 10.644531 -1.265625 L 10.1875 -2.4375 L 0.527344 1.34375 L 0.917969 2.34375 L 9.144531 -0.878906 L 3.183594 8.128906 Z M 3.605469 9.214844 "/></g></g></g><g fill="#000000" fill-opacity="1"><g transform="translate(112.713365, 224.410025)"><g><path d="M 2.410156 2.429688 C 1.96875 1.644531 2.167969 0.773438 2.933594 -0.15625 L 2.054688 -0.695312 C 1.027344 0.53125 0.898438 1.820312 1.535156 2.953125 C 2.433594 4.558594 4.03125 4.96875 5.671875 4.050781 L 12.132812 0.429688 L 11.601562 -0.519531 L 5.105469 3.121094 C 4.019531 3.730469 2.992188 3.46875 2.410156 2.429688 Z M 2.410156 2.429688 "/></g></g></g><g fill="#000000" fill-opacity="1"><g transform="translate(121.814045, 238.893525)"><g><path d="M 11.382812 4.675781 C 13.558594 2.675781 13.75 -0.523438 11.742188 -2.707031 C 9.707031 -4.921875 6.472656 -4.976562 4.28125 -2.960938 C 2.105469 -0.960938 1.910156 2.238281 3.917969 4.421875 C 5.953125 6.636719 9.1875 6.691406 11.382812 4.675781 Z M 10.570312 3.890625 C 8.863281 5.457031 6.3125 5.519531 4.699219 3.761719 C 3.066406 1.988281 3.363281 -0.589844 5.089844 -2.175781 C 6.796875 -3.742188 9.351562 -3.804688 10.964844 -2.046875 C 12.59375 -0.273438 12.289062 2.3125 10.570312 3.890625 Z M 10.570312 3.890625 "/></g></g></g><g fill="#000000" fill-opacity="1"><g transform="translate(137.190603, 253.761283)"><g><path d="M 2.125 1.375 L 4.703125 -2.605469 L 9.660156 0.605469 L 7.085938 4.585938 L 7.996094 5.175781 L 13.632812 -3.53125 L 12.722656 -4.121094 L 10.230469 -0.273438 L 5.269531 -3.484375 L 7.761719 -7.332031 L 6.851562 -7.921875 L 1.210938 0.785156 Z M 2.125 1.375 "/></g></g></g><g fill="#000000" fill-opacity="1"><g transform="translate(155.000769, 263.900268)"><g><path d="M 9.378906 3.15625 L 12.6875 -6.675781 L 11.671875 -7.019531 L 8.90625 1.195312 L 5.871094 -8.96875 L 4.675781 -9.371094 L 1.367188 0.460938 L 2.386719 0.804688 L 5.203125 -7.574219 L 8.273438 2.785156 Z M 9.378906 3.15625 "/></g></g></g><g fill="#000000" fill-opacity="1"><g transform="translate(174.946574, 269.202092)"><g/></g></g><g fill="#000000" fill-opacity="1"><g transform="translate(187.9312, 270.194667)"><g><path d="M 0.625 -10.453125 L 1.441406 -0.113281 L 4.515625 -0.355469 C 7.542969 -0.59375 9.804688 -2.898438 9.5625 -5.976562 C 9.332031 -8.894531 6.921875 -10.953125 3.699219 -10.699219 Z M 2.441406 -1.214844 L 1.785156 -9.523438 L 3.726562 -9.675781 C 6.421875 -9.890625 8.253906 -8.238281 8.441406 -5.863281 C 8.632812 -3.445312 7.011719 -1.578125 4.398438 -1.371094 Z M 2.441406 -1.214844 "/></g></g></g><g fill="#000000" fill-opacity="1"><g transform="translate(208.001587, 267.4778)"><g><path d="M 8.847656 -8.550781 C 7.886719 -11.347656 5.035156 -12.804688 2.226562 -11.84375 C -0.617188 -10.867188 -1.960938 -7.925781 -0.996094 -5.105469 C -0.0351562 -2.3125 2.816406 -0.855469 5.625 -1.816406 C 8.46875 -2.792969 9.8125 -5.734375 8.847656 -8.550781 Z M 7.800781 -8.125 C 8.554688 -5.929688 7.585938 -3.566406 5.332031 -2.792969 C 3.050781 -2.011719 0.808594 -3.316406 0.046875 -5.535156 C -0.703125 -7.726562 0.265625 -10.089844 2.519531 -10.863281 C 4.800781 -11.648438 7.046875 -10.328125 7.800781 -8.125 Z M 7.800781 -8.125 "/></g></g></g><g fill="#000000" fill-opacity="1"><g transform="translate(227.777694, 259.349944)"><g><path d="M -4.496094 -9.460938 L 1.207031 -0.792969 L 3.785156 -2.492188 C 6.320312 -4.160156 7.191406 -7.269531 5.492188 -9.847656 C 3.882812 -12.292969 0.78125 -12.933594 -1.917969 -11.15625 Z M 1.554688 -2.242188 L -3.027344 -9.203125 L -1.402344 -10.273438 C 0.855469 -11.761719 3.257812 -11.199219 4.566406 -9.207031 C 5.898438 -7.179688 5.382812 -4.761719 3.191406 -3.320312 Z M 1.554688 -2.242188 "/></g></g></g><g fill="#000000" fill-opacity="1"><g transform="translate(243.997541, 247.284333)"><g><path d="M -6.652344 -8.089844 L 0.976562 -1.0625 L 3.070312 -3.332031 C 5.125 -5.5625 5.21875 -8.792969 2.945312 -10.882812 C 0.792969 -12.867188 -2.371094 -12.738281 -4.558594 -10.359375 Z M 0.964844 -2.550781 L -5.164062 -8.199219 L -3.847656 -9.628906 C -2.015625 -11.617188 0.449219 -11.652344 2.203125 -10.039062 C 3.988281 -8.394531 4.070312 -5.925781 2.292969 -3.996094 Z M 0.964844 -2.550781 "/></g></g></g><g fill="#000000" fill-opacity="1"><g transform="translate(256.721894, 231.675604)"><g><path d="M 2.179688 -3.636719 C 3.207031 -5.445312 2.628906 -7.222656 1.300781 -7.972656 C 0.703125 -8.3125 0.0585938 -8.355469 -0.574219 -8.210938 C -1.394531 -8.023438 -2.210938 -7.417969 -3 -6.585938 C -4.117188 -5.421875 -4.886719 -5.109375 -5.703125 -5.574219 C -6.648438 -6.109375 -6.726562 -7.34375 -6.179688 -8.308594 C -5.5 -9.507812 -4.488281 -9.683594 -3.570312 -9.558594 L -3.5625 -10.621094 C -4.863281 -10.824219 -6.207031 -10.335938 -7.054688 -8.835938 C -7.902344 -7.335938 -7.738281 -5.476562 -6.195312 -4.601562 C -4.9375 -3.890625 -3.664062 -4.28125 -2.164062 -5.882812 C -1.085938 -7.039062 -0.121094 -7.5 0.824219 -6.964844 C 1.769531 -6.429688 1.894531 -5.199219 1.292969 -4.140625 C 0.59375 -2.90625 -0.460938 -2.652344 -1.753906 -2.820312 L -1.789062 -1.757812 C -0.125 -1.5 1.285156 -2.058594 2.179688 -3.636719 Z M 2.179688 -3.636719 "/></g></g></g><g fill="#000000" fill-opacity="1"><g transform="translate(164.938002, 240.864392)"><g><path d="M 7.890625 -54.796875 L 22.890625 -54.796875 C 29.710938 -54.796875 35.359375 -53.441406 39.828125 -50.734375 C 44.304688 -48.035156 47.566406 -44.550781 49.609375 -40.28125 C 51.648438 -36.007812 52.671875 -31.5 52.671875 -26.75 C 52.671875 -21.445312 51.429688 -16.757812 48.953125 -12.6875 C 46.484375 -8.625 43.175781 -5.492188 39.03125 -3.296875 C 34.882812 -1.097656 30.390625 0 25.546875 0 L 7.890625 0 Z M 24.109375 -7.125 C 28.148438 -7.125 31.757812 -7.921875 34.9375 -9.515625 C 38.125 -11.109375 40.613281 -13.421875 42.40625 -16.453125 C 44.195312 -19.484375 45.09375 -23.09375 45.09375 -27.28125 C 45.09375 -31.582031 44.15625 -35.273438 42.28125 -38.359375 C 40.414062 -41.441406 37.929688 -43.773438 34.828125 -45.359375 C 31.722656 -46.953125 28.375 -47.75 24.78125 -47.75 L 15.234375 -47.75 L 15.234375 -7.125 Z M 24.109375 -7.125 "/></g></g></g><g fill="#000000" fill-opacity="1"><g transform="translate(165.075788, 183.919122)"><g><path d="M 7.390625 -51.40625 L 21.46875 -51.40625 C 27.875 -51.40625 33.171875 -50.132812 37.359375 -47.59375 C 41.554688 -45.0625 44.613281 -41.789062 46.53125 -37.78125 C 48.457031 -33.78125 49.421875 -29.554688 49.421875 -25.109375 C 49.421875 -20.128906 48.257812 -15.726562 45.9375 -11.90625 C 43.613281 -8.09375 40.507812 -5.15625 36.625 -3.09375 C 32.738281 -1.03125 28.519531 0 23.96875 0 L 7.390625 0 Z M 22.609375 -6.6875 C 26.398438 -6.6875 29.789062 -7.429688 32.78125 -8.921875 C 35.769531 -10.421875 38.101562 -12.59375 39.78125 -15.4375 C 41.46875 -18.28125 42.3125 -21.664062 42.3125 -25.59375 C 42.3125 -29.625 41.429688 -33.082031 39.671875 -35.96875 C 37.921875 -38.863281 35.585938 -41.054688 32.671875 -42.546875 C 29.753906 -44.046875 26.613281 -44.796875 23.25 -44.796875 L 14.296875 -44.796875 L 14.296875 -6.6875 Z M 22.609375 -6.6875 "/></g></g></g></svg>